<svg width="1440" height="88" viewBox="0 0 1440 88" fill="none" xmlns="http://www.w3.org/2000/svg">
<path d="M-130.901 65H-140.931V51.4219H-176.188V65H-186.217V37.3423C-186.217 33.3049 -185.522 29.5889 -184.134 26.1943C-182.745 22.7998 -180.816 19.881 -178.348 17.438C-175.879 14.995 -172.96 13.092 -169.591 11.729C-166.222 10.366 -162.545 9.68457 -158.559 9.68457H-135.955C-135.26 9.68457 -134.604 9.81315 -133.987 10.0703C-133.37 10.3275 -132.83 10.6875 -132.367 11.1504C-131.904 11.6133 -131.544 12.1533 -131.287 12.7705C-131.03 13.3877 -130.901 14.0435 -130.901 14.7378V65ZM-176.188 41.3926H-140.931V19.7139H-158.559C-158.868 19.7139 -159.523 19.7653 -160.526 19.8682C-161.504 19.9453 -162.648 20.1639 -163.959 20.5239C-165.245 20.884 -166.608 21.4368 -168.048 22.1826C-169.488 22.9284 -170.813 23.957 -172.021 25.2686C-173.23 26.5801 -174.233 28.2259 -175.03 30.2061C-175.802 32.1605 -176.188 34.5392 -176.188 37.3423V41.3926ZM-63.9365 28.2773C-63.9365 30.5661 -64.2194 32.6105 -64.7852 34.4106C-65.3509 36.2108 -66.1224 37.8052 -67.0996 39.1938C-68.0511 40.5568 -69.1569 41.7269 -70.417 42.7041C-71.6771 43.6813 -73.0015 44.4914 -74.3901 45.1343C-75.7531 45.7515 -77.1418 46.2015 -78.5562 46.4844C-79.9448 46.7673 -81.2563 46.9087 -82.4907 46.9087L-61.5449 65H-77.0518L-97.959 46.9087H-105.172V36.8794H-82.4907C-81.2306 36.7765 -80.0863 36.5194 -79.0576 36.1079C-78.0033 35.6707 -77.1032 35.0921 -76.3574 34.3721C-75.5859 33.652 -74.9945 32.7905 -74.583 31.7876C-74.1715 30.759 -73.9658 29.5889 -73.9658 28.2773V21.9512C-73.9658 21.3854 -74.043 20.9611 -74.1973 20.6782C-74.3258 20.3696 -74.5059 20.151 -74.7373 20.0225C-74.943 19.8682 -75.1745 19.7782 -75.4316 19.7524C-75.6631 19.7267 -75.8817 19.7139 -76.0874 19.7139H-109.184V65H-119.213V14.7378C-119.213 14.0435 -119.085 13.3877 -118.828 12.7705C-118.57 12.1533 -118.223 11.6133 -117.786 11.1504C-117.323 10.6875 -116.783 10.3275 -116.166 10.0703C-115.549 9.81315 -114.88 9.68457 -114.16 9.68457H-76.0874C-73.8501 9.68457 -71.96 10.096 -70.417 10.9189C-68.874 11.7161 -67.6268 12.7319 -66.6753 13.9663C-65.6981 15.175 -65.0037 16.4865 -64.5923 17.9009C-64.1551 19.3153 -63.9365 20.6396 -63.9365 21.874V28.2773ZM-4.33936 19.7139H-26.4424V65H-36.4717V19.7139H-58.6133V9.68457H-4.33936V19.7139ZM13.1733 65H3.14404V9.68457H13.1733V65ZM78.0552 48.7217C78.0552 50.7018 77.798 52.4891 77.2837 54.0835C76.7951 55.6522 76.1393 57.0409 75.3164 58.2495C74.4935 59.4582 73.5291 60.4868 72.4233 61.3354C71.3175 62.1841 70.1732 62.8784 68.9902 63.4185C67.8073 63.9585 66.5986 64.3571 65.3643 64.6143C64.1556 64.8714 63.0112 65 61.9312 65H23.2412V54.9707H61.9312C63.8599 54.9707 65.3514 54.4049 66.4058 53.2734C67.4858 52.1419 68.0259 50.6247 68.0259 48.7217C68.0259 47.7959 67.8844 46.9473 67.6016 46.1758C67.3187 45.4043 66.9072 44.7357 66.3672 44.1699C65.8529 43.6042 65.21 43.167 64.4385 42.8584C63.6927 42.5498 62.8569 42.3955 61.9312 42.3955H38.8638C37.2437 42.3955 35.495 42.1126 33.6177 41.5469C31.7404 40.9554 29.9917 40.0168 28.3716 38.731C26.7772 37.4451 25.4399 35.7607 24.3599 33.6777C23.3055 31.5947 22.7783 29.0488 22.7783 26.04C22.7783 23.0312 23.3055 20.4982 24.3599 18.4409C25.4399 16.3579 26.7772 14.6735 28.3716 13.3877C29.9917 12.0762 31.7404 11.1375 33.6177 10.5718C35.495 9.98031 37.2437 9.68457 38.8638 9.68457H73.002V19.7139H38.8638C36.9608 19.7139 35.4692 20.2925 34.3892 21.4497C33.3348 22.6069 32.8076 24.137 32.8076 26.04C32.8076 27.9688 33.3348 29.4989 34.3892 30.6304C35.4692 31.7362 36.9608 32.2891 38.8638 32.2891H61.9312H62.0083C63.0884 32.3148 64.2327 32.4691 65.4414 32.752C66.6501 33.0091 67.8459 33.4206 69.0288 33.9863C70.2375 34.5521 71.3818 35.2721 72.4619 36.1465C73.542 36.9951 74.4935 38.0238 75.3164 39.2324C76.165 40.4411 76.8337 41.8298 77.3223 43.3984C77.8109 44.9671 78.0552 46.7415 78.0552 48.7217ZM135.762 19.7139H113.659V65H103.63V19.7139H81.4883V9.68457H135.762V19.7139ZM196.324 48.7217C196.324 50.7018 196.067 52.4891 195.552 54.0835C195.064 55.6522 194.408 57.0409 193.585 58.2495C192.762 59.4582 191.798 60.4868 190.692 61.3354C189.586 62.1841 188.442 62.8784 187.259 63.4185C186.076 63.9585 184.867 64.3571 183.633 64.6143C182.424 64.8714 181.28 65 180.2 65H141.51V54.9707H180.2C182.128 54.9707 183.62 54.4049 184.674 53.2734C185.754 52.1419 186.294 50.6247 186.294 48.7217C186.294 47.7959 186.153 46.9473 185.87 46.1758C185.587 45.4043 185.176 44.7357 184.636 44.1699C184.121 43.6042 183.479 43.167 182.707 42.8584C181.961 42.5498 181.125 42.3955 180.2 42.3955H157.132C155.512 42.3955 153.764 42.1126 151.886 41.5469C150.009 40.9554 148.26 40.0168 146.64 38.731C145.046 37.4451 143.708 35.7607 142.628 33.6777C141.574 31.5947 141.047 29.0488 141.047 26.04C141.047 23.0312 141.574 20.4982 142.628 18.4409C143.708 16.3579 145.046 14.6735 146.64 13.3877C148.26 12.0762 150.009 11.1375 151.886 10.5718C153.764 9.98031 155.512 9.68457 157.132 9.68457H191.271V19.7139H157.132C155.229 19.7139 153.738 20.2925 152.658 21.4497C151.603 22.6069 151.076 24.137 151.076 26.04C151.076 27.9688 151.603 29.4989 152.658 30.6304C153.738 31.7362 155.229 32.2891 157.132 32.2891H180.2H180.277C181.357 32.3148 182.501 32.4691 183.71 32.752C184.919 33.0091 186.114 33.4206 187.297 33.9863C188.506 34.5521 189.65 35.2721 190.73 36.1465C191.811 36.9951 192.762 38.0238 193.585 39.2324C194.434 40.4411 195.102 41.8298 195.591 43.3984C196.079 44.9671 196.324 46.7415 196.324 48.7217Z" fill="white"/>
<path d="M263.099 65H253.069V51.4219H217.812V65H207.783V37.3423C207.783 33.3049 208.478 29.5889 209.866 26.1943C211.255 22.7998 213.184 19.881 215.652 17.438C218.121 14.995 221.04 13.092 224.409 11.729C227.778 10.366 231.455 9.68457 235.441 9.68457H258.045C258.74 9.68457 259.396 9.81315 260.013 10.0703C260.63 10.3275 261.17 10.6875 261.633 11.1504C262.096 11.6133 262.456 12.1533 262.713 12.7705C262.97 13.3877 263.099 14.0435 263.099 14.7378V65ZM217.812 41.3926H253.069V19.7139H235.441C235.132 19.7139 234.477 19.7653 233.474 19.8682C232.496 19.9453 231.352 20.1639 230.041 20.5239C228.755 20.884 227.392 21.4368 225.952 22.1826C224.512 22.9284 223.187 23.957 221.979 25.2686C220.77 26.5801 219.767 28.2259 218.97 30.2061C218.198 32.1605 217.812 34.5392 217.812 37.3423V41.3926ZM330.063 28.2773C330.063 30.5661 329.781 32.6105 329.215 34.4106C328.649 36.2108 327.878 37.8052 326.9 39.1938C325.949 40.5568 324.843 41.7269 323.583 42.7041C322.323 43.6813 320.999 44.4914 319.61 45.1343C318.247 45.7515 316.858 46.2015 315.444 46.4844C314.055 46.7673 312.744 46.9087 311.509 46.9087L332.455 65H316.948L296.041 46.9087H288.828V36.8794H311.509C312.769 36.7765 313.914 36.5194 314.942 36.1079C315.997 35.6707 316.897 35.0921 317.643 34.3721C318.414 33.652 319.006 32.7905 319.417 31.7876C319.828 30.759 320.034 29.5889 320.034 28.2773V21.9512C320.034 21.3854 319.957 20.9611 319.803 20.6782C319.674 20.3696 319.494 20.151 319.263 20.0225C319.057 19.8682 318.826 19.7782 318.568 19.7524C318.337 19.7267 318.118 19.7139 317.913 19.7139H284.816V65H274.787V14.7378C274.787 14.0435 274.915 13.3877 275.172 12.7705C275.43 12.1533 275.777 11.6133 276.214 11.1504C276.677 10.6875 277.217 10.3275 277.834 10.0703C278.451 9.81315 279.12 9.68457 279.84 9.68457H317.913C320.15 9.68457 322.04 10.096 323.583 10.9189C325.126 11.7161 326.373 12.7319 327.325 13.9663C328.302 15.175 328.996 16.4865 329.408 17.9009C329.845 19.3153 330.063 20.6396 330.063 21.874V28.2773ZM389.661 19.7139H367.558V65H357.528V19.7139H335.387V9.68457H389.661V19.7139ZM407.173 65H397.144V9.68457H407.173V65ZM472.055 48.7217C472.055 50.7018 471.798 52.4891 471.284 54.0835C470.795 55.6522 470.139 57.0409 469.316 58.2495C468.493 59.4582 467.529 60.4868 466.423 61.3354C465.318 62.1841 464.173 62.8784 462.99 63.4185C461.807 63.9585 460.599 64.3571 459.364 64.6143C458.156 64.8714 457.011 65 455.931 65H417.241V54.9707H455.931C457.86 54.9707 459.351 54.4049 460.406 53.2734C461.486 52.1419 462.026 50.6247 462.026 48.7217C462.026 47.7959 461.884 46.9473 461.602 46.1758C461.319 45.4043 460.907 44.7357 460.367 44.1699C459.853 43.6042 459.21 43.167 458.438 42.8584C457.693 42.5498 456.857 42.3955 455.931 42.3955H432.864C431.244 42.3955 429.495 42.1126 427.618 41.5469C425.74 40.9554 423.992 40.0168 422.372 38.731C420.777 37.4451 419.44 35.7607 418.36 33.6777C417.306 31.5947 416.778 29.0488 416.778 26.04C416.778 23.0312 417.306 20.4982 418.36 18.4409C419.44 16.3579 420.777 14.6735 422.372 13.3877C423.992 12.0762 425.74 11.1375 427.618 10.5718C429.495 9.98031 431.244 9.68457 432.864 9.68457H467.002V19.7139H432.864C430.961 19.7139 429.469 20.2925 428.389 21.4497C427.335 22.6069 426.808 24.137 426.808 26.04C426.808 27.9688 427.335 29.4989 428.389 30.6304C429.469 31.7362 430.961 32.2891 432.864 32.2891H455.931H456.008C457.088 32.3148 458.233 32.4691 459.441 32.752C460.65 33.0091 461.846 33.4206 463.029 33.9863C464.237 34.5521 465.382 35.2721 466.462 36.1465C467.542 36.9951 468.493 38.0238 469.316 39.2324C470.165 40.4411 470.834 41.8298 471.322 43.3984C471.811 44.9671 472.055 46.7415 472.055 48.7217ZM529.762 19.7139H507.659V65H497.63V19.7139H475.488V9.68457H529.762V19.7139ZM590.324 48.7217C590.324 50.7018 590.067 52.4891 589.552 54.0835C589.064 55.6522 588.408 57.0409 587.585 58.2495C586.762 59.4582 585.798 60.4868 584.692 61.3354C583.586 62.1841 582.442 62.8784 581.259 63.4185C580.076 63.9585 578.867 64.3571 577.633 64.6143C576.424 64.8714 575.28 65 574.2 65H535.51V54.9707H574.2C576.128 54.9707 577.62 54.4049 578.674 53.2734C579.754 52.1419 580.294 50.6247 580.294 48.7217C580.294 47.7959 580.153 46.9473 579.87 46.1758C579.587 45.4043 579.176 44.7357 578.636 44.1699C578.121 43.6042 577.479 43.167 576.707 42.8584C575.961 42.5498 575.125 42.3955 574.2 42.3955H551.132C549.512 42.3955 547.764 42.1126 545.886 41.5469C544.009 40.9554 542.26 40.0168 540.64 38.731C539.046 37.4451 537.708 35.7607 536.628 33.6777C535.574 31.5947 535.047 29.0488 535.047 26.04C535.047 23.0312 535.574 20.4982 536.628 18.4409C537.708 16.3579 539.046 14.6735 540.64 13.3877C542.26 12.0762 544.009 11.1375 545.886 10.5718C547.764 9.98031 549.512 9.68457 551.132 9.68457H585.271V19.7139H551.132C549.229 19.7139 547.738 20.2925 546.658 21.4497C545.603 22.6069 545.076 24.137 545.076 26.04C545.076 27.9688 545.603 29.4989 546.658 30.6304C547.738 31.7362 549.229 32.2891 551.132 32.2891H574.2H574.277C575.357 32.3148 576.501 32.4691 577.71 32.752C578.919 33.0091 580.114 33.4206 581.297 33.9863C582.506 34.5521 583.65 35.2721 584.73 36.1465C585.811 36.9951 586.762 38.0238 587.585 39.2324C588.434 40.4411 589.102 41.8298 589.591 43.3984C590.079 44.9671 590.324 46.7415 590.324 48.7217Z" fill="black"/>
<path d="M263.099 65V66H264.099V65H263.099ZM253.069 65H252.069V66H253.069V65ZM253.069 51.4219H254.069V50.4219H253.069V51.4219ZM217.812 51.4219V50.4219H216.812V51.4219H217.812ZM217.812 65V66H218.812V65H217.812ZM207.783 65H206.783V66H207.783V65ZM224.409 11.729L224.034 10.802L224.409 11.729ZM217.812 41.3926H216.812V42.3926H217.812V41.3926ZM253.069 41.3926V42.3926H254.069V41.3926H253.069ZM253.069 19.7139H254.069V18.7139H253.069V19.7139ZM233.474 19.8682L233.552 20.8651L233.564 20.8641L233.576 20.8629L233.474 19.8682ZM230.041 20.5239L229.776 19.5596L229.771 19.561L230.041 20.5239ZM221.979 25.2686L221.243 24.5909L221.979 25.2686ZM218.97 30.2061L218.042 29.8326L218.04 29.8389L218.97 30.2061ZM263.099 64H253.069V66H263.099V64ZM254.069 65V51.4219H252.069V65H254.069ZM253.069 50.4219H217.812V52.4219H253.069V50.4219ZM216.812 51.4219V65H218.812V51.4219H216.812ZM217.812 64H207.783V66H217.812V64ZM208.783 65V37.3423H206.783V65H208.783ZM208.783 37.3423C208.783 33.4216 209.457 29.8357 210.792 26.573L208.941 25.8157C207.498 29.342 206.783 33.1881 206.783 37.3423H208.783ZM210.792 26.573C212.132 23.2959 213.988 20.4919 216.356 18.1488L214.949 16.7272C212.379 19.2701 210.377 22.3037 208.941 25.8157L210.792 26.573ZM216.356 18.1488C218.726 15.8031 221.532 13.9717 224.784 12.656L224.034 10.802C220.548 12.2122 217.516 14.1868 214.949 16.7272L216.356 18.1488ZM224.784 12.656C228.022 11.3457 231.571 10.6846 235.441 10.6846V8.68457C231.339 8.68457 227.533 9.38636 224.034 10.802L224.784 12.656ZM235.441 10.6846H258.045V8.68457H235.441V10.6846ZM258.045 10.6846C258.613 10.6846 259.137 10.789 259.628 10.9934L260.397 9.14724C259.654 8.83734 258.867 8.68457 258.045 8.68457V10.6846ZM259.628 10.9934C260.127 11.2014 260.557 11.489 260.926 11.8575L262.34 10.4433C261.783 9.88603 261.132 9.45354 260.397 9.14724L259.628 10.9934ZM260.926 11.8575C261.294 12.226 261.582 12.6559 261.79 13.1551L263.636 12.3859C263.33 11.6508 262.897 11.0005 262.34 10.4433L260.926 11.8575ZM261.79 13.1551C261.994 13.6457 262.099 14.1703 262.099 14.7378H264.099C264.099 13.9166 263.946 13.1296 263.636 12.3859L261.79 13.1551ZM262.099 14.7378V65H264.099V14.7378H262.099ZM217.812 42.3926H253.069V40.3926H217.812V42.3926ZM254.069 41.3926V19.7139H252.069V41.3926H254.069ZM253.069 18.7139H235.441V20.7139H253.069V18.7139ZM235.441 18.7139C235.072 18.7139 234.363 18.7717 233.372 18.8734L233.576 20.8629C234.59 20.7589 235.193 20.7139 235.441 20.7139V18.7139ZM233.395 18.8713C232.336 18.9549 231.127 19.1888 229.776 19.5596L230.305 21.4883C231.577 21.139 232.657 20.9358 233.552 20.8651L233.395 18.8713ZM229.771 19.561C228.407 19.9428 226.98 20.5239 225.492 21.2946L226.412 23.0706C227.803 22.3498 229.102 21.8251 230.31 21.4869L229.771 19.561ZM225.492 21.2946C223.939 22.099 222.523 23.2023 221.243 24.5909L222.714 25.9462C223.851 24.7118 225.085 23.7578 226.412 23.0706L225.492 21.2946ZM221.243 24.5909C219.938 26.0069 218.876 27.7618 218.042 29.8326L219.897 30.5795C220.658 28.69 221.602 27.1532 222.714 25.9462L221.243 24.5909ZM218.04 29.8389C217.209 31.9421 216.812 34.4531 216.812 37.3423H218.812C218.812 34.6253 219.187 32.3788 219.9 30.5732L218.04 29.8389ZM216.812 37.3423V41.3926H218.812V37.3423H216.812ZM329.215 34.4106L328.261 34.1108L329.215 34.4106ZM326.9 39.1938L326.083 38.6184L326.08 38.6214L326.9 39.1938ZM319.61 45.1343L320.022 46.0453L320.03 46.0417L319.61 45.1343ZM315.444 46.4844L315.248 45.5038L315.244 45.5045L315.444 46.4844ZM311.509 46.9087V45.9087H308.822L310.856 47.6655L311.509 46.9087ZM332.455 65V66H335.143L333.109 64.2432L332.455 65ZM316.948 65L316.294 65.7562L316.576 66H316.948V65ZM296.041 46.9087L296.695 46.1525L296.414 45.9087H296.041V46.9087ZM288.828 46.9087H287.828V47.9087H288.828V46.9087ZM288.828 36.8794V35.8794H287.828V36.8794H288.828ZM311.509 36.8794V37.8794H311.55L311.591 37.8761L311.509 36.8794ZM314.942 36.1079L315.314 37.0365L315.325 37.0317L314.942 36.1079ZM317.643 34.3721L316.96 33.641L316.954 33.6468L316.948 33.6527L317.643 34.3721ZM319.417 31.7876L320.342 32.1672L320.345 32.159L319.417 31.7876ZM319.803 20.6782L318.88 21.0628L318.9 21.1111L318.925 21.1571L319.803 20.6782ZM319.263 20.0225L318.663 20.8225L318.717 20.8634L318.777 20.8966L319.263 20.0225ZM318.568 19.7524L318.458 20.7464L318.469 20.7475L318.568 19.7524ZM284.816 19.7139V18.7139H283.816V19.7139H284.816ZM284.816 65V66H285.816V65H284.816ZM274.787 65H273.787V66H274.787V65ZM276.214 11.1504L275.507 10.4433L275.497 10.4534L275.487 10.4638L276.214 11.1504ZM323.583 10.9189L323.112 11.8014L323.124 11.8074L323.583 10.9189ZM327.325 13.9663L326.533 14.5768L326.54 14.586L326.547 14.595L327.325 13.9663ZM329.408 17.9009L328.448 18.1802L328.45 18.1882L328.452 18.1962L329.408 17.9009ZM329.063 28.2773C329.063 30.4853 328.79 32.4258 328.261 34.1108L330.169 34.7105C330.771 32.7952 331.063 30.6469 331.063 28.2773H329.063ZM328.261 34.1108C327.723 35.8234 326.994 37.3228 326.083 38.6184L327.718 39.7693C328.761 38.2875 329.576 36.5981 330.169 34.7105L328.261 34.1108ZM326.08 38.6214C325.184 39.9053 324.147 41.001 322.97 41.9139L324.196 43.4943C325.539 42.4528 326.714 41.2083 327.72 39.7663L326.08 38.6214ZM322.97 41.9139C321.767 42.8468 320.507 43.6169 319.19 44.2268L320.03 46.0417C321.49 45.3658 322.879 44.5158 324.196 43.4943L322.97 41.9139ZM319.197 44.2233C317.901 44.8103 316.585 45.2364 315.248 45.5038L315.64 47.465C317.132 47.1666 318.593 46.6926 320.022 46.0452L319.197 44.2233ZM315.244 45.5045C313.912 45.7759 312.668 45.9087 311.509 45.9087V47.9087C312.82 47.9087 314.199 47.7586 315.643 47.4643L315.244 45.5045ZM310.856 47.6655L331.801 65.7568L333.109 64.2432L312.163 46.1519L310.856 47.6655ZM332.455 64H316.948V66H332.455V64ZM317.603 64.2438L296.695 46.1525L295.387 47.6649L316.294 65.7562L317.603 64.2438ZM296.041 45.9087H288.828V47.9087H296.041V45.9087ZM289.828 46.9087V36.8794H287.828V46.9087H289.828ZM288.828 37.8794H311.509V35.8794H288.828V37.8794ZM311.591 37.8761C312.936 37.7662 314.18 37.4897 315.314 37.0364L314.571 35.1794C313.647 35.549 312.602 35.7868 311.428 35.8827L311.591 37.8761ZM315.325 37.0317C316.484 36.5513 317.493 35.9069 318.337 35.0915L316.948 33.6527C316.301 34.2773 315.51 34.7901 314.559 35.1842L315.325 37.0317ZM318.325 35.1031C319.205 34.2821 319.878 33.2996 320.342 32.1672L318.492 31.408C318.134 32.2814 317.624 33.022 316.96 33.641L318.325 35.1031ZM320.345 32.159C320.812 30.9926 321.034 29.6932 321.034 28.2773H319.034C319.034 29.4846 318.845 30.5253 318.489 31.4162L320.345 32.159ZM321.034 28.2773V21.9512H319.034V28.2773H321.034ZM321.034 21.9512C321.034 21.3272 320.955 20.7019 320.681 20.1994L318.925 21.1571C318.959 21.2203 319.034 21.4436 319.034 21.9512H321.034ZM320.726 20.2936C320.534 19.8328 320.223 19.4122 319.748 19.1483L318.777 20.8966C318.777 20.8969 318.779 20.8977 318.782 20.9001C318.785 20.9026 318.791 20.9081 318.799 20.9185C318.817 20.9398 318.847 20.9833 318.88 21.0628L320.726 20.2936ZM319.863 19.2225C319.51 18.9581 319.106 18.8012 318.668 18.7574L318.469 20.7475C318.545 20.7551 318.604 20.7782 318.663 20.8225L319.863 19.2225ZM318.679 18.7586C318.415 18.7293 318.16 18.7139 317.913 18.7139V20.7139C318.077 20.7139 318.258 20.7242 318.458 20.7463L318.679 18.7586ZM317.913 18.7139H284.816V20.7139H317.913V18.7139ZM283.816 19.7139V65H285.816V19.7139H283.816ZM284.816 64H274.787V66H284.816V64ZM275.787 65V14.7378H273.787V65H275.787ZM275.787 14.7378C275.787 14.1703 275.891 13.6457 276.095 13.1551L274.249 12.3859C273.939 13.1296 273.787 13.9166 273.787 14.7378H275.787ZM276.095 13.1551C276.308 12.644 276.591 12.2076 276.941 11.837L275.487 10.4638C274.962 11.019 274.551 11.6627 274.249 12.3859L276.095 13.1551ZM276.921 11.8575C277.29 11.489 277.719 11.2014 278.219 10.9934L277.449 9.14724C276.714 9.45354 276.064 9.88603 275.507 10.4433L276.921 11.8575ZM278.219 10.9934C278.705 10.7908 279.242 10.6846 279.84 10.6846V8.68457C278.998 8.68457 278.198 8.83549 277.449 9.14724L278.219 10.9934ZM279.84 10.6846H317.913V8.68457H279.84V10.6846ZM317.913 10.6846C320.03 10.6846 321.749 11.0742 323.112 11.8013L324.054 10.0366C322.331 9.11784 320.269 8.68457 317.913 8.68457V10.6846ZM323.124 11.8074C324.552 12.5451 325.68 13.471 326.533 14.5768L328.117 13.3558C327.066 11.9929 325.7 10.8871 324.042 10.0305L323.124 11.8074ZM326.547 14.595C327.446 15.7063 328.075 16.9002 328.448 18.1802L330.368 17.6215C329.917 16.0728 329.158 14.6437 328.102 13.3376L326.547 14.595ZM328.452 18.1962C328.866 19.5334 329.063 20.7574 329.063 21.874H331.063C331.063 20.5219 330.824 19.0972 330.363 17.6056L328.452 18.1962ZM329.063 21.874V28.2773H331.063V21.874H329.063ZM389.661 19.7139V20.7139H390.661V19.7139H389.661ZM367.558 19.7139V18.7139H366.558V19.7139H367.558ZM367.558 65V66H368.558V65H367.558ZM357.528 65H356.528V66H357.528V65ZM357.528 19.7139H358.528V18.7139H357.528V19.7139ZM335.387 19.7139H334.387V20.7139H335.387V19.7139ZM335.387 9.68457V8.68457H334.387V9.68457H335.387ZM389.661 9.68457H390.661V8.68457H389.661V9.68457ZM389.661 18.7139H367.558V20.7139H389.661V18.7139ZM366.558 19.7139V65H368.558V19.7139H366.558ZM367.558 64H357.528V66H367.558V64ZM358.528 65V19.7139H356.528V65H358.528ZM357.528 18.7139H335.387V20.7139H357.528V18.7139ZM336.387 19.7139V9.68457H334.387V19.7139H336.387ZM335.387 10.6846H389.661V8.68457H335.387V10.6846ZM388.661 9.68457V19.7139H390.661V9.68457H388.661ZM407.173 65V66H408.173V65H407.173ZM397.144 65H396.144V66H397.144V65ZM397.144 9.68457V8.68457H396.144V9.68457H397.144ZM407.173 9.68457H408.173V8.68457H407.173V9.68457ZM407.173 64H397.144V66H407.173V64ZM398.144 65V9.68457H396.144V65H398.144ZM397.144 10.6846H407.173V8.68457H397.144V10.6846ZM406.173 9.68457V65H408.173V9.68457H406.173ZM471.284 54.0835L470.332 53.7765L470.329 53.7861L471.284 54.0835ZM459.364 64.6143L459.16 63.6353L459.156 63.6362L459.364 64.6143ZM417.241 65H416.241V66H417.241V65ZM417.241 54.9707V53.9707H416.241V54.9707H417.241ZM460.406 53.2734L459.682 52.5829L459.674 52.5917L460.406 53.2734ZM460.367 44.1699L459.627 44.8426L459.635 44.8516L459.644 44.8604L460.367 44.1699ZM458.438 42.8584L458.056 43.7825L458.067 43.7869L458.438 42.8584ZM427.618 41.5469L427.317 42.5007L427.329 42.5043L427.618 41.5469ZM422.372 38.731L421.744 39.5094L421.75 39.5142L422.372 38.731ZM418.36 33.6777L417.468 34.1294L417.472 34.1381L418.36 33.6777ZM418.36 18.4409L417.472 17.9806L417.47 17.9848L418.36 18.4409ZM422.372 13.3877L422.999 14.1661L423.001 14.1649L422.372 13.3877ZM427.618 10.5718L427.906 11.5293L427.918 11.5256L427.618 10.5718ZM467.002 9.68457H468.002V8.68457H467.002V9.68457ZM467.002 19.7139V20.7139H468.002V19.7139H467.002ZM428.389 21.4497L427.658 20.7673L427.65 20.7762L428.389 21.4497ZM428.389 30.6304L427.658 31.3121L427.666 31.3207L427.674 31.3291L428.389 30.6304ZM456.008 32.2891L456.032 31.2893L456.02 31.2891H456.008V32.2891ZM459.441 32.752L459.214 33.7256L459.223 33.728L459.233 33.7301L459.441 32.752ZM463.029 33.9863L462.597 34.8885L462.605 34.892L463.029 33.9863ZM466.462 36.1465L465.833 36.9237L465.838 36.9283L465.844 36.9328L466.462 36.1465ZM469.316 39.2324L468.49 39.7952L468.494 39.8012L468.498 39.8071L469.316 39.2324ZM471.055 48.7217C471.055 50.616 470.809 52.2974 470.332 53.7765L472.235 54.3905C472.787 52.6808 473.055 50.7876 473.055 48.7217H471.055ZM470.329 53.7861C469.866 55.272 469.251 56.5691 468.49 57.6867L470.143 58.8123C471.028 57.5126 471.724 56.0324 472.238 54.3809L470.329 53.7861ZM468.49 57.6867C467.724 58.8118 466.832 59.7614 465.815 60.5421L467.032 62.1288C468.226 61.2122 469.263 60.1046 470.143 58.8123L468.49 57.6867ZM465.815 60.5421C464.764 61.3481 463.684 62.0023 462.575 62.5088L463.406 64.3281C464.662 63.7546 465.871 63.0201 467.032 62.1288L465.815 60.5421ZM462.575 62.5088C461.458 63.0189 460.32 63.3938 459.16 63.6353L459.568 65.5932C460.878 65.3204 462.157 64.8981 463.406 64.3281L462.575 62.5088ZM459.156 63.6362C458.006 63.8808 456.932 64 455.931 64V66C457.09 66 458.305 65.862 459.572 65.5924L459.156 63.6362ZM455.931 64H417.241V66H455.931V64ZM418.241 65V54.9707H416.241V65H418.241ZM417.241 55.9707H455.931V53.9707H417.241V55.9707ZM455.931 55.9707C458.064 55.9707 459.849 55.3377 461.137 53.9552L459.674 52.5917C458.854 53.4722 457.656 53.9707 455.931 53.9707V55.9707ZM461.129 53.9639C462.424 52.6077 463.026 50.8229 463.026 48.7217H461.026C461.026 50.4264 460.548 51.6761 459.682 52.583L461.129 53.9639ZM463.026 48.7217C463.026 47.6932 462.869 46.7263 462.54 45.8315L460.663 46.52C460.9 47.1682 461.026 47.8986 461.026 48.7217H463.026ZM462.54 45.8315C462.213 44.9377 461.73 44.1496 461.091 43.4794L459.644 44.8604C460.084 45.3218 460.425 45.8709 460.663 46.52L462.54 45.8315ZM461.107 43.4972C460.482 42.8099 459.71 42.2898 458.81 41.9299L458.067 43.7869C458.71 44.0442 459.223 44.3984 459.627 44.8426L461.107 43.4972ZM458.821 41.9344C457.937 41.5688 456.969 41.3955 455.931 41.3955V43.3955C456.745 43.3955 457.448 43.5308 458.056 43.7824L458.821 41.9344ZM455.931 41.3955H432.864V43.3955H455.931V41.3955ZM432.864 41.3955C431.359 41.3955 429.709 41.1327 427.906 40.5894L427.329 42.5043C429.281 43.0926 431.128 43.3955 432.864 43.3955V41.3955ZM427.918 40.5931C426.163 40.0402 424.523 39.1614 422.993 37.9477L421.75 39.5142C423.461 40.8721 425.317 41.8706 427.317 42.5007L427.918 40.5931ZM422.999 37.9525C421.527 36.7654 420.273 35.1953 419.248 33.2174L417.472 34.1381C418.607 36.3261 420.027 38.1249 421.744 39.5094L422.999 37.9525ZM419.252 33.2261C418.286 31.3176 417.778 28.9358 417.778 26.04H415.778C415.778 29.1619 416.325 31.8719 417.468 34.1293L419.252 33.2261ZM417.778 26.04C417.778 23.1437 418.286 20.7771 419.25 18.897L417.47 17.9848C416.325 20.2193 415.778 22.9188 415.778 26.04H417.778ZM419.248 18.9012C420.273 16.9233 421.527 15.3533 422.999 14.1661L421.744 12.6093C420.027 13.9937 418.607 15.7925 417.472 17.9806L419.248 18.9012ZM423.001 14.1649C424.527 12.9298 426.161 12.0553 427.906 11.5292L427.329 9.61431C425.32 10.2198 423.457 11.2226 421.742 12.6105L423.001 14.1649ZM427.918 11.5256C429.718 10.9584 431.365 10.6846 432.864 10.6846V8.68457C431.123 8.68457 429.272 9.00223 427.317 9.618L427.918 11.5256ZM432.864 10.6846H467.002V8.68457H432.864V10.6846ZM466.002 9.68457V19.7139H468.002V9.68457H466.002ZM467.002 18.7139H432.864V20.7139H467.002V18.7139ZM432.864 18.7139C430.744 18.7139 428.965 19.3671 427.658 20.7674L429.12 22.132C429.973 21.2179 431.177 20.7139 432.864 20.7139V18.7139ZM427.65 20.7762C426.393 22.1555 425.808 23.9443 425.808 26.04H427.808C427.808 24.3297 428.276 23.0584 429.128 22.1232L427.65 20.7762ZM425.808 26.04C425.808 28.1564 426.391 29.9526 427.658 31.3121L429.121 29.9486C428.279 29.0451 427.808 27.7811 427.808 26.04H425.808ZM427.674 31.3291C428.984 32.6703 430.758 33.2891 432.864 33.2891V31.2891C431.164 31.2891 429.955 30.802 429.105 29.9316L427.674 31.3291ZM432.864 33.2891H455.931V31.2891H432.864V33.2891ZM455.931 33.2891H456.008V31.2891H455.931V33.2891ZM455.984 33.2888C456.987 33.3126 458.062 33.4562 459.214 33.7256L459.669 31.7783C458.403 31.482 457.19 31.3169 456.032 31.2893L455.984 33.2888ZM459.233 33.7301C460.36 33.9698 461.481 34.3547 462.597 34.8885L463.46 33.0842C462.21 32.4865 460.94 32.0484 459.65 31.7738L459.233 33.7301ZM462.605 34.892C463.737 35.422 464.813 36.0982 465.833 36.9237L467.091 35.3692C465.951 34.446 464.738 33.6821 463.453 33.0806L462.605 34.892ZM465.844 36.9328C466.838 37.7141 467.721 38.6659 468.49 39.7952L470.143 38.6696C469.266 37.3817 468.246 36.2761 467.08 35.3602L465.844 36.9328ZM468.498 39.8071C469.281 40.922 469.906 42.215 470.368 43.6958L472.277 43.1011C471.761 41.4445 471.049 39.9602 470.135 38.6578L468.498 39.8071ZM470.368 43.6958C470.821 45.1508 471.055 46.8224 471.055 48.7217H473.055C473.055 46.6607 472.801 44.7834 472.277 43.1011L470.368 43.6958ZM529.762 19.7139V20.7139H530.762V19.7139H529.762ZM507.659 19.7139V18.7139H506.659V19.7139H507.659ZM507.659 65V66H508.659V65H507.659ZM497.63 65H496.63V66H497.63V65ZM497.63 19.7139H498.63V18.7139H497.63V19.7139ZM475.488 19.7139H474.488V20.7139H475.488V19.7139ZM475.488 9.68457V8.68457H474.488V9.68457H475.488ZM529.762 9.68457H530.762V8.68457H529.762V9.68457ZM529.762 18.7139H507.659V20.7139H529.762V18.7139ZM506.659 19.7139V65H508.659V19.7139H506.659ZM507.659 64H497.63V66H507.659V64ZM498.63 65V19.7139H496.63V65H498.63ZM497.63 18.7139H475.488V20.7139H497.63V18.7139ZM476.488 19.7139V9.68457H474.488V19.7139H476.488ZM475.488 10.6846H529.762V8.68457H475.488V10.6846ZM528.762 9.68457V19.7139H530.762V9.68457H528.762ZM589.552 54.0835L588.6 53.7765L588.597 53.7861L589.552 54.0835ZM577.633 64.6143L577.429 63.6353L577.425 63.6362L577.633 64.6143ZM535.51 65H534.51V66H535.51V65ZM535.51 54.9707V53.9707H534.51V54.9707H535.51ZM578.674 53.2734L577.951 52.5829L577.943 52.5917L578.674 53.2734ZM578.636 44.1699L577.896 44.8426L577.904 44.8516L577.912 44.8604L578.636 44.1699ZM576.707 42.8584L576.325 43.7825L576.336 43.7869L576.707 42.8584ZM545.886 41.5469L545.586 42.5007L545.598 42.5043L545.886 41.5469ZM540.64 38.731L540.012 39.5094L540.018 39.5142L540.64 38.731ZM536.628 33.6777L535.736 34.1294L535.741 34.1381L536.628 33.6777ZM536.628 18.4409L535.741 17.9806L535.738 17.9848L536.628 18.4409ZM540.64 13.3877L541.268 14.1661L541.269 14.1649L540.64 13.3877ZM545.886 10.5718L546.175 11.5293L546.187 11.5256L545.886 10.5718ZM585.271 9.68457H586.271V8.68457H585.271V9.68457ZM585.271 19.7139V20.7139H586.271V19.7139H585.271ZM546.658 21.4497L545.927 20.7673L545.919 20.7762L546.658 21.4497ZM546.658 30.6304L545.926 31.3121L545.934 31.3207L545.942 31.3291L546.658 30.6304ZM574.277 32.2891L574.301 31.2893L574.289 31.2891H574.277V32.2891ZM577.71 32.752L577.482 33.7256L577.492 33.728L577.502 33.7301L577.71 32.752ZM581.297 33.9863L580.866 34.8885L580.873 34.892L581.297 33.9863ZM584.73 36.1465L584.101 36.9237L584.107 36.9283L584.113 36.9328L584.73 36.1465ZM587.585 39.2324L586.758 39.7952L586.762 39.8012L586.767 39.8071L587.585 39.2324ZM589.324 48.7217C589.324 50.616 589.078 52.2974 588.601 53.7765L590.504 54.3905C591.055 52.6808 591.324 50.7876 591.324 48.7217H589.324ZM588.597 53.7861C588.135 55.272 587.519 56.5691 586.758 57.6867L588.412 58.8123C589.296 57.5126 589.993 56.0324 590.507 54.3809L588.597 53.7861ZM586.758 57.6867C585.992 58.8118 585.1 59.7614 584.083 60.5421L585.301 62.1288C586.495 61.2122 587.532 60.1046 588.412 58.8123L586.758 57.6867ZM584.083 60.5421C583.033 61.3481 581.953 62.0023 580.843 62.5088L581.674 64.3281C582.93 63.7546 584.139 63.0201 585.301 62.1288L584.083 60.5421ZM580.843 62.5088C579.726 63.0189 578.588 63.3938 577.429 63.6353L577.837 65.5932C579.146 65.3204 580.426 64.8981 581.674 64.3281L580.843 62.5088ZM577.425 63.6362C576.275 63.8808 575.201 64 574.2 64V66C575.359 66 576.573 65.862 577.841 65.5924L577.425 63.6362ZM574.2 64H535.51V66H574.2V64ZM536.51 65V54.9707H534.51V65H536.51ZM535.51 55.9707H574.2V53.9707H535.51V55.9707ZM574.2 55.9707C576.333 55.9707 578.118 55.3377 579.406 53.9552L577.943 52.5917C577.122 53.4722 575.924 53.9707 574.2 53.9707V55.9707ZM579.398 53.9639C580.692 52.6077 581.294 50.8229 581.294 48.7217H579.294C579.294 50.4264 578.817 51.6761 577.951 52.583L579.398 53.9639ZM581.294 48.7217C581.294 47.6932 581.137 46.7263 580.809 45.8315L578.931 46.52C579.169 47.1682 579.294 47.8986 579.294 48.7217H581.294ZM580.809 45.8315C580.481 44.9377 579.999 44.1496 579.359 43.4794L577.912 44.8604C578.353 45.3218 578.693 45.8709 578.931 46.52L580.809 45.8315ZM579.376 43.4972C578.751 42.8099 577.978 42.2898 577.078 41.9299L576.336 43.7869C576.979 44.0442 577.492 44.3984 577.896 44.8426L579.376 43.4972ZM577.089 41.9344C576.206 41.5688 575.238 41.3955 574.2 41.3955V43.3955C575.013 43.3955 575.717 43.5308 576.325 43.7824L577.089 41.9344ZM574.2 41.3955H551.132V43.3955H574.2V41.3955ZM551.132 41.3955C549.628 41.3955 547.977 41.1327 546.175 40.5894L545.598 42.5043C547.55 43.0926 549.396 43.3955 551.132 43.3955V41.3955ZM546.187 40.5931C544.432 40.0402 542.791 39.1614 541.262 37.9477L540.018 39.5142C541.729 40.8721 543.586 41.8706 545.586 42.5007L546.187 40.5931ZM541.268 37.9525C539.796 36.7654 538.542 35.1953 537.516 33.2174L535.741 34.1381C536.875 36.3261 538.296 38.1249 540.012 39.5094L541.268 37.9525ZM537.521 33.2261C536.555 31.3176 536.047 28.9358 536.047 26.04H534.047C534.047 29.1619 534.594 31.8719 535.736 34.1293L537.521 33.2261ZM536.047 26.04C536.047 23.1437 536.555 20.7771 537.518 18.897L535.738 17.9848C534.593 20.2193 534.047 22.9188 534.047 26.04H536.047ZM537.516 18.9012C538.542 16.9233 539.796 15.3533 541.268 14.1661L540.012 12.6093C538.296 13.9937 536.875 15.7925 535.741 17.9806L537.516 18.9012ZM541.269 14.1649C542.795 12.9298 544.429 12.0553 546.175 11.5292L545.598 9.61431C543.589 10.2198 541.725 11.2226 540.011 12.6105L541.269 14.1649ZM546.187 11.5256C547.987 10.9584 549.633 10.6846 551.132 10.6846V8.68457C549.391 8.68457 547.54 9.00223 545.586 9.618L546.187 11.5256ZM551.132 10.6846H585.271V8.68457H551.132V10.6846ZM584.271 9.68457V19.7139H586.271V9.68457H584.271ZM585.271 18.7139H551.132V20.7139H585.271V18.7139ZM551.132 18.7139C549.013 18.7139 547.234 19.3671 545.927 20.7674L547.389 22.132C548.242 21.2179 549.446 20.7139 551.132 20.7139V18.7139ZM545.919 20.7762C544.662 22.1555 544.076 23.9443 544.076 26.04H546.076C546.076 24.3297 546.545 23.0584 547.397 22.1232L545.919 20.7762ZM544.076 26.04C544.076 28.1564 544.659 29.9526 545.926 31.3121L547.389 29.9486C546.547 29.0451 546.076 27.7811 546.076 26.04H544.076ZM545.942 31.3291C547.252 32.6703 549.026 33.2891 551.132 33.2891V31.2891C549.432 31.2891 548.223 30.802 547.373 29.9316L545.942 31.3291ZM551.132 33.2891H574.2V31.2891H551.132V33.2891ZM574.2 33.2891H574.277V31.2891H574.2V33.2891ZM574.253 33.2888C575.255 33.3126 576.331 33.4562 577.482 33.7256L577.938 31.7783C576.672 31.482 575.459 31.3169 574.301 31.2893L574.253 33.2888ZM577.502 33.7301C578.629 33.9698 579.75 34.3547 580.866 34.8885L581.729 33.0842C580.479 32.4865 579.208 32.0484 577.918 31.7738L577.502 33.7301ZM580.873 34.892C582.006 35.422 583.082 36.0982 584.101 36.9237L585.36 35.3692C584.219 34.446 583.006 33.6821 581.721 33.0806L580.873 34.892ZM584.113 36.9328C585.107 37.7141 585.989 38.6659 586.758 39.7952L588.412 38.6696C587.535 37.3817 586.514 36.2761 585.348 35.3602L584.113 36.9328ZM586.767 39.8071C587.549 40.922 588.175 42.215 588.636 43.6958L590.546 43.1011C590.03 41.4445 589.318 39.9602 588.403 38.6578L586.767 39.8071ZM588.636 43.6958C589.089 45.1508 589.324 46.8224 589.324 48.7217H591.324C591.324 46.6607 591.07 44.7834 590.546 43.1011L588.636 43.6958Z" fill="white"/>
<path d="M657.099 65H647.069V51.4219H611.812V65H601.783V37.3423C601.783 33.3049 602.478 29.5889 603.866 26.1943C605.255 22.7998 607.184 19.881 609.652 17.438C612.121 14.995 615.04 13.092 618.409 11.729C621.778 10.366 625.455 9.68457 629.441 9.68457H652.045C652.74 9.68457 653.396 9.81315 654.013 10.0703C654.63 10.3275 655.17 10.6875 655.633 11.1504C656.096 11.6133 656.456 12.1533 656.713 12.7705C656.97 13.3877 657.099 14.0435 657.099 14.7378V65ZM611.812 41.3926H647.069V19.7139H629.441C629.132 19.7139 628.477 19.7653 627.474 19.8682C626.496 19.9453 625.352 20.1639 624.041 20.5239C622.755 20.884 621.392 21.4368 619.952 22.1826C618.512 22.9284 617.187 23.957 615.979 25.2686C614.77 26.5801 613.767 28.2259 612.97 30.2061C612.198 32.1605 611.812 34.5392 611.812 37.3423V41.3926ZM724.063 28.2773C724.063 30.5661 723.781 32.6105 723.215 34.4106C722.649 36.2108 721.878 37.8052 720.9 39.1938C719.949 40.5568 718.843 41.7269 717.583 42.7041C716.323 43.6813 714.999 44.4914 713.61 45.1343C712.247 45.7515 710.858 46.2015 709.444 46.4844C708.055 46.7673 706.744 46.9087 705.509 46.9087L726.455 65H710.948L690.041 46.9087H682.828V36.8794H705.509C706.769 36.7765 707.914 36.5194 708.942 36.1079C709.997 35.6707 710.897 35.0921 711.643 34.3721C712.414 33.652 713.006 32.7905 713.417 31.7876C713.828 30.759 714.034 29.5889 714.034 28.2773V21.9512C714.034 21.3854 713.957 20.9611 713.803 20.6782C713.674 20.3696 713.494 20.151 713.263 20.0225C713.057 19.8682 712.826 19.7782 712.568 19.7524C712.337 19.7267 712.118 19.7139 711.913 19.7139H678.816V65H668.787V14.7378C668.787 14.0435 668.915 13.3877 669.172 12.7705C669.43 12.1533 669.777 11.6133 670.214 11.1504C670.677 10.6875 671.217 10.3275 671.834 10.0703C672.451 9.81315 673.12 9.68457 673.84 9.68457H711.913C714.15 9.68457 716.04 10.096 717.583 10.9189C719.126 11.7161 720.373 12.7319 721.325 13.9663C722.302 15.175 722.996 16.4865 723.408 17.9009C723.845 19.3153 724.063 20.6396 724.063 21.874V28.2773ZM783.661 19.7139H761.558V65H751.528V19.7139H729.387V9.68457H783.661V19.7139ZM801.173 65H791.144V9.68457H801.173V65ZM866.055 48.7217C866.055 50.7018 865.798 52.4891 865.284 54.0835C864.795 55.6522 864.139 57.0409 863.316 58.2495C862.493 59.4582 861.529 60.4868 860.423 61.3354C859.318 62.1841 858.173 62.8784 856.99 63.4185C855.807 63.9585 854.599 64.3571 853.364 64.6143C852.156 64.8714 851.011 65 849.931 65H811.241V54.9707H849.931C851.86 54.9707 853.351 54.4049 854.406 53.2734C855.486 52.1419 856.026 50.6247 856.026 48.7217C856.026 47.7959 855.884 46.9473 855.602 46.1758C855.319 45.4043 854.907 44.7357 854.367 44.1699C853.853 43.6042 853.21 43.167 852.438 42.8584C851.693 42.5498 850.857 42.3955 849.931 42.3955H826.864C825.244 42.3955 823.495 42.1126 821.618 41.5469C819.74 40.9554 817.992 40.0168 816.372 38.731C814.777 37.4451 813.44 35.7607 812.36 33.6777C811.306 31.5947 810.778 29.0488 810.778 26.04C810.778 23.0312 811.306 20.4982 812.36 18.4409C813.44 16.3579 814.777 14.6735 816.372 13.3877C817.992 12.0762 819.74 11.1375 821.618 10.5718C823.495 9.98031 825.244 9.68457 826.864 9.68457H861.002V19.7139H826.864C824.961 19.7139 823.469 20.2925 822.389 21.4497C821.335 22.6069 820.808 24.137 820.808 26.04C820.808 27.9688 821.335 29.4989 822.389 30.6304C823.469 31.7362 824.961 32.2891 826.864 32.2891H849.931H850.008C851.088 32.3148 852.233 32.4691 853.441 32.752C854.65 33.0091 855.846 33.4206 857.029 33.9863C858.237 34.5521 859.382 35.2721 860.462 36.1465C861.542 36.9951 862.493 38.0238 863.316 39.2324C864.165 40.4411 864.834 41.8298 865.322 43.3984C865.811 44.9671 866.055 46.7415 866.055 48.7217ZM923.762 19.7139H901.659V65H891.63V19.7139H869.488V9.68457H923.762V19.7139ZM984.324 48.7217C984.324 50.7018 984.067 52.4891 983.552 54.0835C983.064 55.6522 982.408 57.0409 981.585 58.2495C980.762 59.4582 979.798 60.4868 978.692 61.3354C977.586 62.1841 976.442 62.8784 975.259 63.4185C974.076 63.9585 972.867 64.3571 971.633 64.6143C970.424 64.8714 969.28 65 968.2 65H929.51V54.9707H968.2C970.128 54.9707 971.62 54.4049 972.674 53.2734C973.754 52.1419 974.294 50.6247 974.294 48.7217C974.294 47.7959 974.153 46.9473 973.87 46.1758C973.587 45.4043 973.176 44.7357 972.636 44.1699C972.121 43.6042 971.479 43.167 970.707 42.8584C969.961 42.5498 969.125 42.3955 968.2 42.3955H945.132C943.512 42.3955 941.764 42.1126 939.886 41.5469C938.009 40.9554 936.26 40.0168 934.64 38.731C933.046 37.4451 931.708 35.7607 930.628 33.6777C929.574 31.5947 929.047 29.0488 929.047 26.04C929.047 23.0312 929.574 20.4982 930.628 18.4409C931.708 16.3579 933.046 14.6735 934.64 13.3877C936.26 12.0762 938.009 11.1375 939.886 10.5718C941.764 9.98031 943.512 9.68457 945.132 9.68457H979.271V19.7139H945.132C943.229 19.7139 941.738 20.2925 940.658 21.4497C939.603 22.6069 939.076 24.137 939.076 26.04C939.076 27.9688 939.603 29.4989 940.658 30.6304C941.738 31.7362 943.229 32.2891 945.132 32.2891H968.2H968.277C969.357 32.3148 970.501 32.4691 971.71 32.752C972.919 33.0091 974.114 33.4206 975.297 33.9863C976.506 34.5521 977.65 35.2721 978.73 36.1465C979.811 36.9951 980.762 38.0238 981.585 39.2324C982.434 40.4411 983.102 41.8298 983.591 43.3984C984.079 44.9671 984.324 46.7415 984.324 48.7217Z" fill="white"/>
<path d="M1051.1 65H1041.07V51.4219H1005.81V65H995.783V37.3423C995.783 33.3049 996.478 29.5889 997.866 26.1943C999.255 22.7998 1001.18 19.881 1003.65 17.438C1006.12 14.995 1009.04 13.092 1012.41 11.729C1015.78 10.366 1019.45 9.68457 1023.44 9.68457H1046.05C1046.74 9.68457 1047.4 9.81315 1048.01 10.0703C1048.63 10.3275 1049.17 10.6875 1049.63 11.1504C1050.1 11.6133 1050.46 12.1533 1050.71 12.7705C1050.97 13.3877 1051.1 14.0435 1051.1 14.7378V65ZM1005.81 41.3926H1041.07V19.7139H1023.44C1023.13 19.7139 1022.48 19.7653 1021.47 19.8682C1020.5 19.9453 1019.35 20.1639 1018.04 20.5239C1016.75 20.884 1015.39 21.4368 1013.95 22.1826C1012.51 22.9284 1011.19 23.957 1009.98 25.2686C1008.77 26.5801 1007.77 28.2259 1006.97 30.2061C1006.2 32.1605 1005.81 34.5392 1005.81 37.3423V41.3926ZM1118.06 28.2773C1118.06 30.5661 1117.78 32.6105 1117.21 34.4106C1116.65 36.2108 1115.88 37.8052 1114.9 39.1938C1113.95 40.5568 1112.84 41.7269 1111.58 42.7041C1110.32 43.6813 1109 44.4914 1107.61 45.1343C1106.25 45.7515 1104.86 46.2015 1103.44 46.4844C1102.06 46.7673 1100.74 46.9087 1099.51 46.9087L1120.46 65H1104.95L1084.04 46.9087H1076.83V36.8794H1099.51C1100.77 36.7765 1101.91 36.5194 1102.94 36.1079C1104 35.6707 1104.9 35.0921 1105.64 34.3721C1106.41 33.652 1107.01 32.7905 1107.42 31.7876C1107.83 30.759 1108.03 29.5889 1108.03 28.2773V21.9512C1108.03 21.3854 1107.96 20.9611 1107.8 20.6782C1107.67 20.3696 1107.49 20.151 1107.26 20.0225C1107.06 19.8682 1106.83 19.7782 1106.57 19.7524C1106.34 19.7267 1106.12 19.7139 1105.91 19.7139H1072.82V65H1062.79V14.7378C1062.79 14.0435 1062.92 13.3877 1063.17 12.7705C1063.43 12.1533 1063.78 11.6133 1064.21 11.1504C1064.68 10.6875 1065.22 10.3275 1065.83 10.0703C1066.45 9.81315 1067.12 9.68457 1067.84 9.68457H1105.91C1108.15 9.68457 1110.04 10.096 1111.58 10.9189C1113.13 11.7161 1114.37 12.7319 1115.32 13.9663C1116.3 15.175 1117 16.4865 1117.41 17.9009C1117.84 19.3153 1118.06 20.6396 1118.06 21.874V28.2773ZM1177.66 19.7139H1155.56V65H1145.53V19.7139H1123.39V9.68457H1177.66V19.7139ZM1195.17 65H1185.14V9.68457H1195.17V65ZM1260.06 48.7217C1260.06 50.7018 1259.8 52.4891 1259.28 54.0835C1258.8 55.6522 1258.14 57.0409 1257.32 58.2495C1256.49 59.4582 1255.53 60.4868 1254.42 61.3354C1253.32 62.1841 1252.17 62.8784 1250.99 63.4185C1249.81 63.9585 1248.6 64.3571 1247.36 64.6143C1246.16 64.8714 1245.01 65 1243.93 65H1205.24V54.9707H1243.93C1245.86 54.9707 1247.35 54.4049 1248.41 53.2734C1249.49 52.1419 1250.03 50.6247 1250.03 48.7217C1250.03 47.7959 1249.88 46.9473 1249.6 46.1758C1249.32 45.4043 1248.91 44.7357 1248.37 44.1699C1247.85 43.6042 1247.21 43.167 1246.44 42.8584C1245.69 42.5498 1244.86 42.3955 1243.93 42.3955H1220.86C1219.24 42.3955 1217.49 42.1126 1215.62 41.5469C1213.74 40.9554 1211.99 40.0168 1210.37 38.731C1208.78 37.4451 1207.44 35.7607 1206.36 33.6777C1205.31 31.5947 1204.78 29.0488 1204.78 26.04C1204.78 23.0312 1205.31 20.4982 1206.36 18.4409C1207.44 16.3579 1208.78 14.6735 1210.37 13.3877C1211.99 12.0762 1213.74 11.1375 1215.62 10.5718C1217.49 9.98031 1219.24 9.68457 1220.86 9.68457H1255V19.7139H1220.86C1218.96 19.7139 1217.47 20.2925 1216.39 21.4497C1215.33 22.6069 1214.81 24.137 1214.81 26.04C1214.81 27.9688 1215.33 29.4989 1216.39 30.6304C1217.47 31.7362 1218.96 32.2891 1220.86 32.2891H1243.93H1244.01C1245.09 32.3148 1246.23 32.4691 1247.44 32.752C1248.65 33.0091 1249.85 33.4206 1251.03 33.9863C1252.24 34.5521 1253.38 35.2721 1254.46 36.1465C1255.54 36.9951 1256.49 38.0238 1257.32 39.2324C1258.17 40.4411 1258.83 41.8298 1259.32 43.3984C1259.81 44.9671 1260.06 46.7415 1260.06 48.7217ZM1317.76 19.7139H1295.66V65H1285.63V19.7139H1263.49V9.68457H1317.76V19.7139ZM1378.32 48.7217C1378.32 50.7018 1378.07 52.4891 1377.55 54.0835C1377.06 55.6522 1376.41 57.0409 1375.58 58.2495C1374.76 59.4582 1373.8 60.4868 1372.69 61.3354C1371.59 62.1841 1370.44 62.8784 1369.26 63.4185C1368.08 63.9585 1366.87 64.3571 1365.63 64.6143C1364.42 64.8714 1363.28 65 1362.2 65H1323.51V54.9707H1362.2C1364.13 54.9707 1365.62 54.4049 1366.67 53.2734C1367.75 52.1419 1368.29 50.6247 1368.29 48.7217C1368.29 47.7959 1368.15 46.9473 1367.87 46.1758C1367.59 45.4043 1367.18 44.7357 1366.64 44.1699C1366.12 43.6042 1365.48 43.167 1364.71 42.8584C1363.96 42.5498 1363.13 42.3955 1362.2 42.3955H1339.13C1337.51 42.3955 1335.76 42.1126 1333.89 41.5469C1332.01 40.9554 1330.26 40.0168 1328.64 38.731C1327.05 37.4451 1325.71 35.7607 1324.63 33.6777C1323.57 31.5947 1323.05 29.0488 1323.05 26.04C1323.05 23.0312 1323.57 20.4982 1324.63 18.4409C1325.71 16.3579 1327.05 14.6735 1328.64 13.3877C1330.26 12.0762 1332.01 11.1375 1333.89 10.5718C1335.76 9.98031 1337.51 9.68457 1339.13 9.68457H1373.27V19.7139H1339.13C1337.23 19.7139 1335.74 20.2925 1334.66 21.4497C1333.6 22.6069 1333.08 24.137 1333.08 26.04C1333.08 27.9688 1333.6 29.4989 1334.66 30.6304C1335.74 31.7362 1337.23 32.2891 1339.13 32.2891H1362.2H1362.28C1363.36 32.3148 1364.5 32.4691 1365.71 32.752C1366.92 33.0091 1368.11 33.4206 1369.3 33.9863C1370.51 34.5521 1371.65 35.2721 1372.73 36.1465C1373.81 36.9951 1374.76 38.0238 1375.58 39.2324C1376.43 40.4411 1377.1 41.8298 1377.59 43.3984C1378.08 44.9671 1378.32 46.7415 1378.32 48.7217Z" fill="black"/>
<path d="M1051.1 65V66H1052.1V65H1051.1ZM1041.07 65H1040.07V66H1041.07V65ZM1041.07 51.4219H1042.07V50.4219H1041.07V51.4219ZM1005.81 51.4219V50.4219H1004.81V51.4219H1005.81ZM1005.81 65V66H1006.81V65H1005.81ZM995.783 65H994.783V66H995.783V65ZM1012.41 11.729L1012.03 10.802L1012.41 11.729ZM1005.81 41.3926H1004.81V42.3926H1005.81V41.3926ZM1041.07 41.3926V42.3926H1042.07V41.3926H1041.07ZM1041.07 19.7139H1042.07V18.7139H1041.07V19.7139ZM1021.47 19.8682L1021.55 20.8651L1021.56 20.8641L1021.58 20.8629L1021.47 19.8682ZM1018.04 20.5239L1017.78 19.5596L1017.77 19.561L1018.04 20.5239ZM1009.98 25.2686L1009.24 24.5909L1009.98 25.2686ZM1006.97 30.2061L1006.04 29.8326L1006.04 29.8389L1006.97 30.2061ZM1051.1 64H1041.07V66H1051.1V64ZM1042.07 65V51.4219H1040.07V65H1042.07ZM1041.07 50.4219H1005.81V52.4219H1041.07V50.4219ZM1004.81 51.4219V65H1006.81V51.4219H1004.81ZM1005.81 64H995.783V66H1005.81V64ZM996.783 65V37.3423H994.783V65H996.783ZM996.783 37.3423C996.783 33.4216 997.457 29.8357 998.792 26.573L996.941 25.8157C995.498 29.342 994.783 33.1881 994.783 37.3423H996.783ZM998.792 26.573C1000.13 23.2959 1001.99 20.4919 1004.36 18.1488L1002.95 16.7272C1000.38 19.2701 998.377 22.3037 996.941 25.8157L998.792 26.573ZM1004.36 18.1488C1006.73 15.8031 1009.53 13.9717 1012.78 12.656L1012.03 10.802C1008.55 12.2122 1005.52 14.1868 1002.95 16.7272L1004.36 18.1488ZM1012.78 12.656C1016.02 11.3457 1019.57 10.6846 1023.44 10.6846V8.68457C1019.34 8.68457 1015.53 9.38636 1012.03 10.802L1012.78 12.656ZM1023.44 10.6846H1046.05V8.68457H1023.44V10.6846ZM1046.05 10.6846C1046.61 10.6846 1047.14 10.789 1047.63 10.9934L1048.4 9.14724C1047.65 8.83734 1046.87 8.68457 1046.05 8.68457V10.6846ZM1047.63 10.9934C1048.13 11.2014 1048.56 11.489 1048.93 11.8575L1050.34 10.4433C1049.78 9.88603 1049.13 9.45354 1048.4 9.14724L1047.63 10.9934ZM1048.93 11.8575C1049.29 12.226 1049.58 12.6559 1049.79 13.1551L1051.64 12.3859C1051.33 11.6508 1050.9 11.0005 1050.34 10.4433L1048.93 11.8575ZM1049.79 13.1551C1049.99 13.6457 1050.1 14.1703 1050.1 14.7378H1052.1C1052.1 13.9166 1051.95 13.1296 1051.64 12.3859L1049.79 13.1551ZM1050.1 14.7378V65H1052.1V14.7378H1050.1ZM1005.81 42.3926H1041.07V40.3926H1005.81V42.3926ZM1042.07 41.3926V19.7139H1040.07V41.3926H1042.07ZM1041.07 18.7139H1023.44V20.7139H1041.07V18.7139ZM1023.44 18.7139C1023.07 18.7139 1022.36 18.7717 1021.37 18.8734L1021.58 20.8629C1022.59 20.7589 1023.19 20.7139 1023.44 20.7139V18.7139ZM1021.39 18.8713C1020.34 18.9549 1019.13 19.1888 1017.78 19.5596L1018.31 21.4883C1019.58 21.139 1020.66 20.9358 1021.55 20.8651L1021.39 18.8713ZM1017.77 19.561C1016.41 19.9428 1014.98 20.5239 1013.49 21.2946L1014.41 23.0706C1015.8 22.3498 1017.1 21.8251 1018.31 21.4869L1017.77 19.561ZM1013.49 21.2946C1011.94 22.099 1010.52 23.2023 1009.24 24.5909L1010.71 25.9462C1011.85 24.7118 1013.08 23.7578 1014.41 23.0706L1013.49 21.2946ZM1009.24 24.5909C1007.94 26.0069 1006.88 27.7618 1006.04 29.8326L1007.9 30.5795C1008.66 28.69 1009.6 27.1532 1010.71 25.9462L1009.24 24.5909ZM1006.04 29.8389C1005.21 31.9421 1004.81 34.4531 1004.81 37.3423H1006.81C1006.81 34.6253 1007.19 32.3788 1007.9 30.5732L1006.04 29.8389ZM1004.81 37.3423V41.3926H1006.81V37.3423H1004.81ZM1117.21 34.4106L1116.26 34.1108L1117.21 34.4106ZM1114.9 39.1938L1114.08 38.6184L1114.08 38.6214L1114.9 39.1938ZM1107.61 45.1343L1108.02 46.0453L1108.03 46.0417L1107.61 45.1343ZM1103.44 46.4844L1103.25 45.5038L1103.24 45.5045L1103.44 46.4844ZM1099.51 46.9087V45.9087H1096.82L1098.86 47.6655L1099.51 46.9087ZM1120.46 65V66H1123.14L1121.11 64.2432L1120.46 65ZM1104.95 65L1104.29 65.7562L1104.58 66H1104.95V65ZM1084.04 46.9087L1084.7 46.1525L1084.41 45.9087H1084.04V46.9087ZM1076.83 46.9087H1075.83V47.9087H1076.83V46.9087ZM1076.83 36.8794V35.8794H1075.83V36.8794H1076.83ZM1099.51 36.8794V37.8794H1099.55L1099.59 37.8761L1099.51 36.8794ZM1102.94 36.1079L1103.31 37.0365L1103.33 37.0317L1102.94 36.1079ZM1105.64 34.3721L1104.96 33.641L1104.95 33.6468L1104.95 33.6527L1105.64 34.3721ZM1107.42 31.7876L1108.34 32.1672L1108.35 32.159L1107.42 31.7876ZM1107.8 20.6782L1106.88 21.0628L1106.9 21.1111L1106.92 21.1571L1107.8 20.6782ZM1107.26 20.0225L1106.66 20.8225L1106.72 20.8634L1106.78 20.8966L1107.26 20.0225ZM1106.57 19.7524L1106.46 20.7464L1106.47 20.7475L1106.57 19.7524ZM1072.82 19.7139V18.7139H1071.82V19.7139H1072.82ZM1072.82 65V66H1073.82V65H1072.82ZM1062.79 65H1061.79V66H1062.79V65ZM1064.21 11.1504L1063.51 10.4433L1063.5 10.4534L1063.49 10.4638L1064.21 11.1504ZM1111.58 10.9189L1111.11 11.8014L1111.12 11.8074L1111.58 10.9189ZM1115.32 13.9663L1114.53 14.5768L1114.54 14.586L1114.55 14.595L1115.32 13.9663ZM1117.41 17.9009L1116.45 18.1802L1116.45 18.1882L1116.45 18.1962L1117.41 17.9009ZM1117.06 28.2773C1117.06 30.4853 1116.79 32.4258 1116.26 34.1108L1118.17 34.7105C1118.77 32.7952 1119.06 30.6469 1119.06 28.2773H1117.06ZM1116.26 34.1108C1115.72 35.8234 1114.99 37.3228 1114.08 38.6184L1115.72 39.7693C1116.76 38.2875 1117.58 36.5981 1118.17 34.7105L1116.26 34.1108ZM1114.08 38.6214C1113.18 39.9053 1112.15 41.001 1110.97 41.9139L1112.2 43.4943C1113.54 42.4528 1114.71 41.2083 1115.72 39.7663L1114.08 38.6214ZM1110.97 41.9139C1109.77 42.8468 1108.51 43.6169 1107.19 44.2268L1108.03 46.0417C1109.49 45.3658 1110.88 44.5158 1112.2 43.4943L1110.97 41.9139ZM1107.2 44.2233C1105.9 44.8103 1104.58 45.2364 1103.25 45.5038L1103.64 47.465C1105.13 47.1666 1106.59 46.6926 1108.02 46.0452L1107.2 44.2233ZM1103.24 45.5045C1101.91 45.7759 1100.67 45.9087 1099.51 45.9087V47.9087C1100.82 47.9087 1102.2 47.7586 1103.64 47.4643L1103.24 45.5045ZM1098.86 47.6655L1119.8 65.7568L1121.11 64.2432L1100.16 46.1519L1098.86 47.6655ZM1120.46 64H1104.95V66H1120.46V64ZM1105.6 64.2438L1084.7 46.1525L1083.39 47.6649L1104.29 65.7562L1105.6 64.2438ZM1084.04 45.9087H1076.83V47.9087H1084.04V45.9087ZM1077.83 46.9087V36.8794H1075.83V46.9087H1077.83ZM1076.83 37.8794H1099.51V35.8794H1076.83V37.8794ZM1099.59 37.8761C1100.94 37.7662 1102.18 37.4897 1103.31 37.0364L1102.57 35.1794C1101.65 35.549 1100.6 35.7868 1099.43 35.8827L1099.59 37.8761ZM1103.33 37.0317C1104.48 36.5513 1105.49 35.9069 1106.34 35.0915L1104.95 33.6527C1104.3 34.2773 1103.51 34.7901 1102.56 35.1842L1103.33 37.0317ZM1106.32 35.1031C1107.2 34.2821 1107.88 33.2996 1108.34 32.1672L1106.49 31.408C1106.13 32.2814 1105.62 33.022 1104.96 33.641L1106.32 35.1031ZM1108.35 32.159C1108.81 30.9926 1109.03 29.6932 1109.03 28.2773H1107.03C1107.03 29.4846 1106.84 30.5253 1106.49 31.4162L1108.35 32.159ZM1109.03 28.2773V21.9512H1107.03V28.2773H1109.03ZM1109.03 21.9512C1109.03 21.3272 1108.95 20.7019 1108.68 20.1994L1106.92 21.1571C1106.96 21.2203 1107.03 21.4436 1107.03 21.9512H1109.03ZM1108.73 20.2936C1108.53 19.8328 1108.22 19.4122 1107.75 19.1483L1106.78 20.8966C1106.78 20.8969 1106.78 20.8977 1106.78 20.9001C1106.78 20.9026 1106.79 20.9081 1106.8 20.9185C1106.82 20.9398 1106.85 20.9833 1106.88 21.0628L1108.73 20.2936ZM1107.86 19.2225C1107.51 18.9581 1107.11 18.8012 1106.67 18.7574L1106.47 20.7475C1106.55 20.7551 1106.6 20.7782 1106.66 20.8225L1107.86 19.2225ZM1106.68 18.7586C1106.42 18.7293 1106.16 18.7139 1105.91 18.7139V20.7139C1106.08 20.7139 1106.26 20.7242 1106.46 20.7463L1106.68 18.7586ZM1105.91 18.7139H1072.82V20.7139H1105.91V18.7139ZM1071.82 19.7139V65H1073.82V19.7139H1071.82ZM1072.82 64H1062.79V66H1072.82V64ZM1063.79 65V14.7378H1061.79V65H1063.79ZM1063.79 14.7378C1063.79 14.1703 1063.89 13.6457 1064.1 13.1551L1062.25 12.3859C1061.94 13.1296 1061.79 13.9166 1061.79 14.7378H1063.79ZM1064.1 13.1551C1064.31 12.644 1064.59 12.2076 1064.94 11.837L1063.49 10.4638C1062.96 11.019 1062.55 11.6627 1062.25 12.3859L1064.1 13.1551ZM1064.92 11.8575C1065.29 11.489 1065.72 11.2014 1066.22 10.9934L1065.45 9.14724C1064.71 9.45354 1064.06 9.88603 1063.51 10.4433L1064.92 11.8575ZM1066.22 10.9934C1066.7 10.7908 1067.24 10.6846 1067.84 10.6846V8.68457C1067 8.68457 1066.2 8.83549 1065.45 9.14724L1066.22 10.9934ZM1067.84 10.6846H1105.91V8.68457H1067.84V10.6846ZM1105.91 10.6846C1108.03 10.6846 1109.75 11.0742 1111.11 11.8013L1112.05 10.0366C1110.33 9.11784 1108.27 8.68457 1105.91 8.68457V10.6846ZM1111.12 11.8074C1112.55 12.5451 1113.68 13.471 1114.53 14.5768L1116.12 13.3558C1115.07 11.9929 1113.7 10.8871 1112.04 10.0305L1111.12 11.8074ZM1114.55 14.595C1115.45 15.7063 1116.08 16.9002 1116.45 18.1802L1118.37 17.6215C1117.92 16.0728 1117.16 14.6437 1116.1 13.3376L1114.55 14.595ZM1116.45 18.1962C1116.87 19.5334 1117.06 20.7574 1117.06 21.874H1119.06C1119.06 20.5219 1118.82 19.0972 1118.36 17.6056L1116.45 18.1962ZM1117.06 21.874V28.2773H1119.06V21.874H1117.06ZM1177.66 19.7139V20.7139H1178.66V19.7139H1177.66ZM1155.56 19.7139V18.7139H1154.56V19.7139H1155.56ZM1155.56 65V66H1156.56V65H1155.56ZM1145.53 65H1144.53V66H1145.53V65ZM1145.53 19.7139H1146.53V18.7139H1145.53V19.7139ZM1123.39 19.7139H1122.39V20.7139H1123.39V19.7139ZM1123.39 9.68457V8.68457H1122.39V9.68457H1123.39ZM1177.66 9.68457H1178.66V8.68457H1177.66V9.68457ZM1177.66 18.7139H1155.56V20.7139H1177.66V18.7139ZM1154.56 19.7139V65H1156.56V19.7139H1154.56ZM1155.56 64H1145.53V66H1155.56V64ZM1146.53 65V19.7139H1144.53V65H1146.53ZM1145.53 18.7139H1123.39V20.7139H1145.53V18.7139ZM1124.39 19.7139V9.68457H1122.39V19.7139H1124.39ZM1123.39 10.6846H1177.66V8.68457H1123.39V10.6846ZM1176.66 9.68457V19.7139H1178.66V9.68457H1176.66ZM1195.17 65V66H1196.17V65H1195.17ZM1185.14 65H1184.14V66H1185.14V65ZM1185.14 9.68457V8.68457H1184.14V9.68457H1185.14ZM1195.17 9.68457H1196.17V8.68457H1195.17V9.68457ZM1195.17 64H1185.14V66H1195.17V64ZM1186.14 65V9.68457H1184.14V65H1186.14ZM1185.14 10.6846H1195.17V8.68457H1185.14V10.6846ZM1194.17 9.68457V65H1196.17V9.68457H1194.17ZM1259.28 54.0835L1258.33 53.7765L1258.33 53.7861L1259.28 54.0835ZM1247.36 64.6143L1247.16 63.6353L1247.16 63.6362L1247.36 64.6143ZM1205.24 65H1204.24V66H1205.24V65ZM1205.24 54.9707V53.9707H1204.24V54.9707H1205.24ZM1248.41 53.2734L1247.68 52.5829L1247.67 52.5917L1248.41 53.2734ZM1248.37 44.1699L1247.63 44.8426L1247.64 44.8516L1247.64 44.8604L1248.37 44.1699ZM1246.44 42.8584L1246.06 43.7825L1246.07 43.7869L1246.44 42.8584ZM1215.62 41.5469L1215.32 42.5007L1215.33 42.5043L1215.62 41.5469ZM1210.37 38.731L1209.74 39.5094L1209.75 39.5142L1210.37 38.731ZM1206.36 33.6777L1205.47 34.1294L1205.47 34.1381L1206.36 33.6777ZM1206.36 18.4409L1205.47 17.9806L1205.47 17.9848L1206.36 18.4409ZM1210.37 13.3877L1211 14.1661L1211 14.1649L1210.37 13.3877ZM1215.62 10.5718L1215.91 11.5293L1215.92 11.5256L1215.62 10.5718ZM1255 9.68457H1256V8.68457H1255V9.68457ZM1255 19.7139V20.7139H1256V19.7139H1255ZM1216.39 21.4497L1215.66 20.7673L1215.65 20.7762L1216.39 21.4497ZM1216.39 30.6304L1215.66 31.3121L1215.67 31.3207L1215.67 31.3291L1216.39 30.6304ZM1244.01 32.2891L1244.03 31.2893L1244.02 31.2891H1244.01V32.2891ZM1247.44 32.752L1247.21 33.7256L1247.22 33.728L1247.23 33.7301L1247.44 32.752ZM1251.03 33.9863L1250.6 34.8885L1250.6 34.892L1251.03 33.9863ZM1254.46 36.1465L1253.83 36.9237L1253.84 36.9283L1253.84 36.9328L1254.46 36.1465ZM1257.32 39.2324L1256.49 39.7952L1256.49 39.8012L1256.5 39.8071L1257.32 39.2324ZM1259.06 48.7217C1259.06 50.616 1258.81 52.2974 1258.33 53.7765L1260.24 54.3905C1260.79 52.6808 1261.06 50.7876 1261.06 48.7217H1259.06ZM1258.33 53.7861C1257.87 55.272 1257.25 56.5691 1256.49 57.6867L1258.14 58.8123C1259.03 57.5126 1259.72 56.0324 1260.24 54.3809L1258.33 53.7861ZM1256.49 57.6867C1255.72 58.8118 1254.83 59.7614 1253.81 60.5421L1255.03 62.1288C1256.23 61.2122 1257.26 60.1046 1258.14 58.8123L1256.49 57.6867ZM1253.81 60.5421C1252.76 61.3481 1251.68 62.0023 1250.57 62.5088L1251.41 64.3281C1252.66 63.7546 1253.87 63.0201 1255.03 62.1288L1253.81 60.5421ZM1250.57 62.5088C1249.46 63.0189 1248.32 63.3938 1247.16 63.6353L1247.57 65.5932C1248.88 65.3204 1250.16 64.8981 1251.41 64.3281L1250.57 62.5088ZM1247.16 63.6362C1246.01 63.8808 1244.93 64 1243.93 64V66C1245.09 66 1246.3 65.862 1247.57 65.5924L1247.16 63.6362ZM1243.93 64H1205.24V66H1243.93V64ZM1206.24 65V54.9707H1204.24V65H1206.24ZM1205.24 55.9707H1243.93V53.9707H1205.24V55.9707ZM1243.93 55.9707C1246.06 55.9707 1247.85 55.3377 1249.14 53.9552L1247.67 52.5917C1246.85 53.4722 1245.66 53.9707 1243.93 53.9707V55.9707ZM1249.13 53.9639C1250.42 52.6077 1251.03 50.8229 1251.03 48.7217H1249.03C1249.03 50.4264 1248.55 51.6761 1247.68 52.583L1249.13 53.9639ZM1251.03 48.7217C1251.03 47.6932 1250.87 46.7263 1250.54 45.8315L1248.66 46.52C1248.9 47.1682 1249.03 47.8986 1249.03 48.7217H1251.03ZM1250.54 45.8315C1250.21 44.9377 1249.73 44.1496 1249.09 43.4794L1247.64 44.8604C1248.08 45.3218 1248.42 45.8709 1248.66 46.52L1250.54 45.8315ZM1249.11 43.4972C1248.48 42.8099 1247.71 42.2898 1246.81 41.9299L1246.07 43.7869C1246.71 44.0442 1247.22 44.3984 1247.63 44.8426L1249.11 43.4972ZM1246.82 41.9344C1245.94 41.5688 1244.97 41.3955 1243.93 41.3955V43.3955C1244.74 43.3955 1245.45 43.5308 1246.06 43.7824L1246.82 41.9344ZM1243.93 41.3955H1220.86V43.3955H1243.93V41.3955ZM1220.86 41.3955C1219.36 41.3955 1217.71 41.1327 1215.91 40.5894L1215.33 42.5043C1217.28 43.0926 1219.13 43.3955 1220.86 43.3955V41.3955ZM1215.92 40.5931C1214.16 40.0402 1212.52 39.1614 1210.99 37.9477L1209.75 39.5142C1211.46 40.8721 1213.32 41.8706 1215.32 42.5007L1215.92 40.5931ZM1211 37.9525C1209.53 36.7654 1208.27 35.1953 1207.25 33.2174L1205.47 34.1381C1206.61 36.3261 1208.03 38.1249 1209.74 39.5094L1211 37.9525ZM1207.25 33.2261C1206.29 31.3176 1205.78 28.9358 1205.78 26.04H1203.78C1203.78 29.1619 1204.32 31.8719 1205.47 34.1293L1207.25 33.2261ZM1205.78 26.04C1205.78 23.1437 1206.29 20.7771 1207.25 18.897L1205.47 17.9848C1204.32 20.2193 1203.78 22.9188 1203.78 26.04H1205.78ZM1207.25 18.9012C1208.27 16.9233 1209.53 15.3533 1211 14.1661L1209.74 12.6093C1208.03 13.9937 1206.61 15.7925 1205.47 17.9806L1207.25 18.9012ZM1211 14.1649C1212.53 12.9298 1214.16 12.0553 1215.91 11.5292L1215.33 9.61431C1213.32 10.2198 1211.46 11.2226 1209.74 12.6105L1211 14.1649ZM1215.92 11.5256C1217.72 10.9584 1219.36 10.6846 1220.86 10.6846V8.68457C1219.12 8.68457 1217.27 9.00223 1215.32 9.618L1215.92 11.5256ZM1220.86 10.6846H1255V8.68457H1220.86V10.6846ZM1254 9.68457V19.7139H1256V9.68457H1254ZM1255 18.7139H1220.86V20.7139H1255V18.7139ZM1220.86 18.7139C1218.74 18.7139 1216.97 19.3671 1215.66 20.7674L1217.12 22.132C1217.97 21.2179 1219.18 20.7139 1220.86 20.7139V18.7139ZM1215.65 20.7762C1214.39 22.1555 1213.81 23.9443 1213.81 26.04H1215.81C1215.81 24.3297 1216.28 23.0584 1217.13 22.1232L1215.65 20.7762ZM1213.81 26.04C1213.81 28.1564 1214.39 29.9526 1215.66 31.3121L1217.12 29.9486C1216.28 29.0451 1215.81 27.7811 1215.81 26.04H1213.81ZM1215.67 31.3291C1216.98 32.6703 1218.76 33.2891 1220.86 33.2891V31.2891C1219.16 31.2891 1217.95 30.802 1217.1 29.9316L1215.67 31.3291ZM1220.86 33.2891H1243.93V31.2891H1220.86V33.2891ZM1243.93 33.2891H1244.01V31.2891H1243.93V33.2891ZM1243.98 33.2888C1244.99 33.3126 1246.06 33.4562 1247.21 33.7256L1247.67 31.7783C1246.4 31.482 1245.19 31.3169 1244.03 31.2893L1243.98 33.2888ZM1247.23 33.7301C1248.36 33.9698 1249.48 34.3547 1250.6 34.8885L1251.46 33.0842C1250.21 32.4865 1248.94 32.0484 1247.65 31.7738L1247.23 33.7301ZM1250.6 34.892C1251.74 35.422 1252.81 36.0982 1253.83 36.9237L1255.09 35.3692C1253.95 34.446 1252.74 33.6821 1251.45 33.0806L1250.6 34.892ZM1253.84 36.9328C1254.84 37.7141 1255.72 38.6659 1256.49 39.7952L1258.14 38.6696C1257.27 37.3817 1256.25 36.2761 1255.08 35.3602L1253.84 36.9328ZM1256.5 39.8071C1257.28 40.922 1257.91 42.215 1258.37 43.6958L1260.28 43.1011C1259.76 41.4445 1259.05 39.9602 1258.13 38.6578L1256.5 39.8071ZM1258.37 43.6958C1258.82 45.1508 1259.06 46.8224 1259.06 48.7217H1261.06C1261.06 46.6607 1260.8 44.7834 1260.28 43.1011L1258.37 43.6958ZM1317.76 19.7139V20.7139H1318.76V19.7139H1317.76ZM1295.66 19.7139V18.7139H1294.66V19.7139H1295.66ZM1295.66 65V66H1296.66V65H1295.66ZM1285.63 65H1284.63V66H1285.63V65ZM1285.63 19.7139H1286.63V18.7139H1285.63V19.7139ZM1263.49 19.7139H1262.49V20.7139H1263.49V19.7139ZM1263.49 9.68457V8.68457H1262.49V9.68457H1263.49ZM1317.76 9.68457H1318.76V8.68457H1317.76V9.68457ZM1317.76 18.7139H1295.66V20.7139H1317.76V18.7139ZM1294.66 19.7139V65H1296.66V19.7139H1294.66ZM1295.66 64H1285.63V66H1295.66V64ZM1286.63 65V19.7139H1284.63V65H1286.63ZM1285.63 18.7139H1263.49V20.7139H1285.63V18.7139ZM1264.49 19.7139V9.68457H1262.49V19.7139H1264.49ZM1263.49 10.6846H1317.76V8.68457H1263.49V10.6846ZM1316.76 9.68457V19.7139H1318.76V9.68457H1316.76ZM1377.55 54.0835L1376.6 53.7765L1376.6 53.7861L1377.55 54.0835ZM1365.63 64.6143L1365.43 63.6353L1365.42 63.6362L1365.63 64.6143ZM1323.51 65H1322.51V66H1323.51V65ZM1323.51 54.9707V53.9707H1322.51V54.9707H1323.51ZM1366.67 53.2734L1365.95 52.5829L1365.94 52.5917L1366.67 53.2734ZM1366.64 44.1699L1365.9 44.8426L1365.9 44.8516L1365.91 44.8604L1366.64 44.1699ZM1364.71 42.8584L1364.32 43.7825L1364.34 43.7869L1364.71 42.8584ZM1333.89 41.5469L1333.59 42.5007L1333.6 42.5043L1333.89 41.5469ZM1328.64 38.731L1328.01 39.5094L1328.02 39.5142L1328.64 38.731ZM1324.63 33.6777L1323.74 34.1294L1323.74 34.1381L1324.63 33.6777ZM1324.63 18.4409L1323.74 17.9806L1323.74 17.9848L1324.63 18.4409ZM1328.64 13.3877L1329.27 14.1661L1329.27 14.1649L1328.64 13.3877ZM1333.89 10.5718L1334.17 11.5293L1334.19 11.5256L1333.89 10.5718ZM1373.27 9.68457H1374.27V8.68457H1373.27V9.68457ZM1373.27 19.7139V20.7139H1374.27V19.7139H1373.27ZM1334.66 21.4497L1333.93 20.7673L1333.92 20.7762L1334.66 21.4497ZM1334.66 30.6304L1333.93 31.3121L1333.93 31.3207L1333.94 31.3291L1334.66 30.6304ZM1362.28 32.2891L1362.3 31.2893L1362.29 31.2891H1362.28V32.2891ZM1365.71 32.752L1365.48 33.7256L1365.49 33.728L1365.5 33.7301L1365.71 32.752ZM1369.3 33.9863L1368.87 34.8885L1368.87 34.892L1369.3 33.9863ZM1372.73 36.1465L1372.1 36.9237L1372.11 36.9283L1372.11 36.9328L1372.73 36.1465ZM1375.58 39.2324L1374.76 39.7952L1374.76 39.8012L1374.77 39.8071L1375.58 39.2324ZM1377.32 48.7217C1377.32 50.616 1377.08 52.2974 1376.6 53.7765L1378.5 54.3905C1379.06 52.6808 1379.32 50.7876 1379.32 48.7217H1377.32ZM1376.6 53.7861C1376.13 55.272 1375.52 56.5691 1374.76 57.6867L1376.41 58.8123C1377.3 57.5126 1377.99 56.0324 1378.51 54.3809L1376.6 53.7861ZM1374.76 57.6867C1373.99 58.8118 1373.1 59.7614 1372.08 60.5421L1373.3 62.1288C1374.49 61.2122 1375.53 60.1046 1376.41 58.8123L1374.76 57.6867ZM1372.08 60.5421C1371.03 61.3481 1369.95 62.0023 1368.84 62.5088L1369.67 64.3281C1370.93 63.7546 1372.14 63.0201 1373.3 62.1288L1372.08 60.5421ZM1368.84 62.5088C1367.73 63.0189 1366.59 63.3938 1365.43 63.6353L1365.84 65.5932C1367.15 65.3204 1368.43 64.8981 1369.67 64.3281L1368.84 62.5088ZM1365.42 63.6362C1364.27 63.8808 1363.2 64 1362.2 64V66C1363.36 66 1364.57 65.862 1365.84 65.5924L1365.42 63.6362ZM1362.2 64H1323.51V66H1362.2V64ZM1324.51 65V54.9707H1322.51V65H1324.51ZM1323.51 55.9707H1362.2V53.9707H1323.51V55.9707ZM1362.2 55.9707C1364.33 55.9707 1366.12 55.3377 1367.41 53.9552L1365.94 52.5917C1365.12 53.4722 1363.92 53.9707 1362.2 53.9707V55.9707ZM1367.4 53.9639C1368.69 52.6077 1369.29 50.8229 1369.29 48.7217H1367.29C1367.29 50.4264 1366.82 51.6761 1365.95 52.583L1367.4 53.9639ZM1369.29 48.7217C1369.29 47.6932 1369.14 46.7263 1368.81 45.8315L1366.93 46.52C1367.17 47.1682 1367.29 47.8986 1367.29 48.7217H1369.29ZM1368.81 45.8315C1368.48 44.9377 1368 44.1496 1367.36 43.4794L1365.91 44.8604C1366.35 45.3218 1366.69 45.8709 1366.93 46.52L1368.81 45.8315ZM1367.38 43.4972C1366.75 42.8099 1365.98 42.2898 1365.08 41.9299L1364.34 43.7869C1364.98 44.0442 1365.49 44.3984 1365.9 44.8426L1367.38 43.4972ZM1365.09 41.9344C1364.21 41.5688 1363.24 41.3955 1362.2 41.3955V43.3955C1363.01 43.3955 1363.72 43.5308 1364.32 43.7824L1365.09 41.9344ZM1362.2 41.3955H1339.13V43.3955H1362.2V41.3955ZM1339.13 41.3955C1337.63 41.3955 1335.98 41.1327 1334.17 40.5894L1333.6 42.5043C1335.55 43.0926 1337.4 43.3955 1339.13 43.3955V41.3955ZM1334.19 40.5931C1332.43 40.0402 1330.79 39.1614 1329.26 37.9477L1328.02 39.5142C1329.73 40.8721 1331.59 41.8706 1333.59 42.5007L1334.19 40.5931ZM1329.27 37.9525C1327.8 36.7654 1326.54 35.1953 1325.52 33.2174L1323.74 34.1381C1324.88 36.3261 1326.3 38.1249 1328.01 39.5094L1329.27 37.9525ZM1325.52 33.2261C1324.55 31.3176 1324.05 28.9358 1324.05 26.04H1322.05C1322.05 29.1619 1322.59 31.8719 1323.74 34.1293L1325.52 33.2261ZM1324.05 26.04C1324.05 23.1437 1324.55 20.7771 1325.52 18.897L1323.74 17.9848C1322.59 20.2193 1322.05 22.9188 1322.05 26.04H1324.05ZM1325.52 18.9012C1326.54 16.9233 1327.8 15.3533 1329.27 14.1661L1328.01 12.6093C1326.3 13.9937 1324.88 15.7925 1323.74 17.9806L1325.52 18.9012ZM1329.27 14.1649C1330.8 12.9298 1332.43 12.0553 1334.17 11.5292L1333.6 9.61431C1331.59 10.2198 1329.73 11.2226 1328.01 12.6105L1329.27 14.1649ZM1334.19 11.5256C1335.99 10.9584 1337.63 10.6846 1339.13 10.6846V8.68457C1337.39 8.68457 1335.54 9.00223 1333.59 9.618L1334.19 11.5256ZM1339.13 10.6846H1373.27V8.68457H1339.13V10.6846ZM1372.27 9.68457V19.7139H1374.27V9.68457H1372.27ZM1373.27 18.7139H1339.13V20.7139H1373.27V18.7139ZM1339.13 18.7139C1337.01 18.7139 1335.23 19.3671 1333.93 20.7674L1335.39 22.132C1336.24 21.2179 1337.45 20.7139 1339.13 20.7139V18.7139ZM1333.92 20.7762C1332.66 22.1555 1332.08 23.9443 1332.08 26.04H1334.08C1334.08 24.3297 1334.54 23.0584 1335.4 22.1232L1333.92 20.7762ZM1332.08 26.04C1332.08 28.1564 1332.66 29.9526 1333.93 31.3121L1335.39 29.9486C1334.55 29.0451 1334.08 27.7811 1334.08 26.04H1332.08ZM1333.94 31.3291C1335.25 32.6703 1337.03 33.2891 1339.13 33.2891V31.2891C1337.43 31.2891 1336.22 30.802 1335.37 29.9316L1333.94 31.3291ZM1339.13 33.2891H1362.2V31.2891H1339.13V33.2891ZM1362.2 33.2891H1362.28V31.2891H1362.2V33.2891ZM1362.25 33.2888C1363.26 33.3126 1364.33 33.4562 1365.48 33.7256L1365.94 31.7783C1364.67 31.482 1363.46 31.3169 1362.3 31.2893L1362.25 33.2888ZM1365.5 33.7301C1366.63 33.9698 1367.75 34.3547 1368.87 34.8885L1369.73 33.0842C1368.48 32.4865 1367.21 32.0484 1365.92 31.7738L1365.5 33.7301ZM1368.87 34.892C1370.01 35.422 1371.08 36.0982 1372.1 36.9237L1373.36 35.3692C1372.22 34.446 1371.01 33.6821 1369.72 33.0806L1368.87 34.892ZM1372.11 36.9328C1373.11 37.7141 1373.99 38.6659 1374.76 39.7952L1376.41 38.6696C1375.53 37.3817 1374.51 36.2761 1373.35 35.3602L1372.11 36.9328ZM1374.77 39.8071C1375.55 40.922 1376.17 42.215 1376.64 43.6958L1378.55 43.1011C1378.03 41.4445 1377.32 39.9602 1376.4 38.6578L1374.77 39.8071ZM1376.64 43.6958C1377.09 45.1508 1377.32 46.8224 1377.32 48.7217H1379.32C1379.32 46.6607 1379.07 44.7834 1378.55 43.1011L1376.64 43.6958Z" fill="white"/>
<path d="M1445.1 65H1435.07V51.4219H1399.81V65H1389.78V37.3423C1389.78 33.3049 1390.48 29.5889 1391.87 26.1943C1393.25 22.7998 1395.18 19.881 1397.65 17.438C1400.12 14.995 1403.04 13.092 1406.41 11.729C1409.78 10.366 1413.45 9.68457 1417.44 9.68457H1440.05C1440.74 9.68457 1441.4 9.81315 1442.01 10.0703C1442.63 10.3275 1443.17 10.6875 1443.63 11.1504C1444.1 11.6133 1444.46 12.1533 1444.71 12.7705C1444.97 13.3877 1445.1 14.0435 1445.1 14.7378V65ZM1399.81 41.3926H1435.07V19.7139H1417.44C1417.13 19.7139 1416.48 19.7653 1415.47 19.8682C1414.5 19.9453 1413.35 20.1639 1412.04 20.5239C1410.75 20.884 1409.39 21.4368 1407.95 22.1826C1406.51 22.9284 1405.19 23.957 1403.98 25.2686C1402.77 26.5801 1401.77 28.2259 1400.97 30.2061C1400.2 32.1605 1399.81 34.5392 1399.81 37.3423V41.3926ZM1512.06 28.2773C1512.06 30.5661 1511.78 32.6105 1511.21 34.4106C1510.65 36.2108 1509.88 37.8052 1508.9 39.1938C1507.95 40.5568 1506.84 41.7269 1505.58 42.7041C1504.32 43.6813 1503 44.4914 1501.61 45.1343C1500.25 45.7515 1498.86 46.2015 1497.44 46.4844C1496.06 46.7673 1494.74 46.9087 1493.51 46.9087L1514.46 65H1498.95L1478.04 46.9087H1470.83V36.8794H1493.51C1494.77 36.7765 1495.91 36.5194 1496.94 36.1079C1498 35.6707 1498.9 35.0921 1499.64 34.3721C1500.41 33.652 1501.01 32.7905 1501.42 31.7876C1501.83 30.759 1502.03 29.5889 1502.03 28.2773V21.9512C1502.03 21.3854 1501.96 20.9611 1501.8 20.6782C1501.67 20.3696 1501.49 20.151 1501.26 20.0225C1501.06 19.8682 1500.83 19.7782 1500.57 19.7524C1500.34 19.7267 1500.12 19.7139 1499.91 19.7139H1466.82V65H1456.79V14.7378C1456.79 14.0435 1456.92 13.3877 1457.17 12.7705C1457.43 12.1533 1457.78 11.6133 1458.21 11.1504C1458.68 10.6875 1459.22 10.3275 1459.83 10.0703C1460.45 9.81315 1461.12 9.68457 1461.84 9.68457H1499.91C1502.15 9.68457 1504.04 10.096 1505.58 10.9189C1507.13 11.7161 1508.37 12.7319 1509.32 13.9663C1510.3 15.175 1511 16.4865 1511.41 17.9009C1511.84 19.3153 1512.06 20.6396 1512.06 21.874V28.2773ZM1571.66 19.7139H1549.56V65H1539.53V19.7139H1517.39V9.68457H1571.66V19.7139ZM1589.17 65H1579.14V9.68457H1589.17V65ZM1654.06 48.7217C1654.06 50.7018 1653.8 52.4891 1653.28 54.0835C1652.8 55.6522 1652.14 57.0409 1651.32 58.2495C1650.49 59.4582 1649.53 60.4868 1648.42 61.3354C1647.32 62.1841 1646.17 62.8784 1644.99 63.4185C1643.81 63.9585 1642.6 64.3571 1641.36 64.6143C1640.16 64.8714 1639.01 65 1637.93 65H1599.24V54.9707H1637.93C1639.86 54.9707 1641.35 54.4049 1642.41 53.2734C1643.49 52.1419 1644.03 50.6247 1644.03 48.7217C1644.03 47.7959 1643.88 46.9473 1643.6 46.1758C1643.32 45.4043 1642.91 44.7357 1642.37 44.1699C1641.85 43.6042 1641.21 43.167 1640.44 42.8584C1639.69 42.5498 1638.86 42.3955 1637.93 42.3955H1614.86C1613.24 42.3955 1611.49 42.1126 1609.62 41.5469C1607.74 40.9554 1605.99 40.0168 1604.37 38.731C1602.78 37.4451 1601.44 35.7607 1600.36 33.6777C1599.31 31.5947 1598.78 29.0488 1598.78 26.04C1598.78 23.0312 1599.31 20.4982 1600.36 18.4409C1601.44 16.3579 1602.78 14.6735 1604.37 13.3877C1605.99 12.0762 1607.74 11.1375 1609.62 10.5718C1611.49 9.98031 1613.24 9.68457 1614.86 9.68457H1649V19.7139H1614.86C1612.96 19.7139 1611.47 20.2925 1610.39 21.4497C1609.33 22.6069 1608.81 24.137 1608.81 26.04C1608.81 27.9688 1609.33 29.4989 1610.39 30.6304C1611.47 31.7362 1612.96 32.2891 1614.86 32.2891H1637.93H1638.01C1639.09 32.3148 1640.23 32.4691 1641.44 32.752C1642.65 33.0091 1643.85 33.4206 1645.03 33.9863C1646.24 34.5521 1647.38 35.2721 1648.46 36.1465C1649.54 36.9951 1650.49 38.0238 1651.32 39.2324C1652.17 40.4411 1652.83 41.8298 1653.32 43.3984C1653.81 44.9671 1654.06 46.7415 1654.06 48.7217ZM1711.76 19.7139H1689.66V65H1679.63V19.7139H1657.49V9.68457H1711.76V19.7139ZM1772.32 48.7217C1772.32 50.7018 1772.07 52.4891 1771.55 54.0835C1771.06 55.6522 1770.41 57.0409 1769.58 58.2495C1768.76 59.4582 1767.8 60.4868 1766.69 61.3354C1765.59 62.1841 1764.44 62.8784 1763.26 63.4185C1762.08 63.9585 1760.87 64.3571 1759.63 64.6143C1758.42 64.8714 1757.28 65 1756.2 65H1717.51V54.9707H1756.2C1758.13 54.9707 1759.62 54.4049 1760.67 53.2734C1761.75 52.1419 1762.29 50.6247 1762.29 48.7217C1762.29 47.7959 1762.15 46.9473 1761.87 46.1758C1761.59 45.4043 1761.18 44.7357 1760.64 44.1699C1760.12 43.6042 1759.48 43.167 1758.71 42.8584C1757.96 42.5498 1757.13 42.3955 1756.2 42.3955H1733.13C1731.51 42.3955 1729.76 42.1126 1727.89 41.5469C1726.01 40.9554 1724.26 40.0168 1722.64 38.731C1721.05 37.4451 1719.71 35.7607 1718.63 33.6777C1717.57 31.5947 1717.05 29.0488 1717.05 26.04C1717.05 23.0312 1717.57 20.4982 1718.63 18.4409C1719.71 16.3579 1721.05 14.6735 1722.64 13.3877C1724.26 12.0762 1726.01 11.1375 1727.89 10.5718C1729.76 9.98031 1731.51 9.68457 1733.13 9.68457H1767.27V19.7139H1733.13C1731.23 19.7139 1729.74 20.2925 1728.66 21.4497C1727.6 22.6069 1727.08 24.137 1727.08 26.04C1727.08 27.9688 1727.6 29.4989 1728.66 30.6304C1729.74 31.7362 1731.23 32.2891 1733.13 32.2891H1756.2H1756.28C1757.36 32.3148 1758.5 32.4691 1759.71 32.752C1760.92 33.0091 1762.11 33.4206 1763.3 33.9863C1764.51 34.5521 1765.65 35.2721 1766.73 36.1465C1767.81 36.9951 1768.76 38.0238 1769.58 39.2324C1770.43 40.4411 1771.1 41.8298 1771.59 43.3984C1772.08 44.9671 1772.32 46.7415 1772.32 48.7217Z" fill="white"/>
</svg>
